<?xml version="1.0" encoding="utf-8"?>
<!-- Generator: Adobe Illustrator 16.0.0, SVG Export Plug-In . SVG Version: 6.00 Build 0)  -->
<!DOCTYPE svg PUBLIC "-//W3C//DTD SVG 1.0//EN" "http://www.w3.org/TR/2001/REC-SVG-20010904/DTD/svg10.dtd">
<svg version="1.0" id="Layer_1" xmlns="http://www.w3.org/2000/svg" xmlns:xlink="http://www.w3.org/1999/xlink" x="0px" y="0px"
	 width="252px" height="81px" viewBox="0 0 199.178 63.936" enable-background="new 0 0 252 81"
	 xml:space="preserve">
<g>
	<g>
		<path fill="#EE2F58" d="M47.202,22.074c0.872-0.623,1.45-1.549,1.628-2.606c0.174-1.062-0.075-2.129-0.695-2.998
			c-0.627-0.877-1.549-1.455-2.614-1.633c-1.058-0.179-2.119,0.07-3,0.697c-1.013,0.722-2.479,4.053-3.589,7.508
			C42.566,23.107,46.182,22.8,47.202,22.074z"/>
		<path fill="#EE2F58" d="M17.475,18.589c0.017-1.229,0.302-2.454,0.831-3.561c1.304-2.727,3.744-4.55,6.627-5.029
			c2.351-0.389,4.714,0.159,6.651,1.542c0.433,0.308,0.841,0.71,1.234,1.181V0H11.229C5.027,0,0,5.027,0,11.23v13.617h19.838
			C18.298,23.189,17.44,20.986,17.475,18.589z"/>
		<path fill="#EE2F58" d="M39.676,11.546c1.938-1.386,4.3-1.934,6.649-1.543c2.883,0.479,5.325,2.305,6.629,5.025
			c0.529,1.114,0.818,2.335,0.833,3.566c0.038,2.396-0.825,4.595-2.361,6.253h19.241V11.23C70.667,5.027,65.64,0,59.436,0H38.425
			v12.75C38.82,12.266,39.237,11.856,39.676,11.546z"/>
		<path fill="#EE2F58" d="M24.136,42.596l0.117-3.953l-3.58,0.487l8.673-8.681H0V42.36c0,6.203,5.027,11.232,11.229,11.232h2.679
			l0.004,9.265c0.003,0.892,1.027,1.397,1.741,0.854l13.143-10.118h4.022V33.91L24.136,42.596z"/>
		<path fill="#EE2F58" d="M41.928,30.449l8.641,8.639l-3.829-0.273l0.364,3.738l-8.679-8.683v19.723h21.011
			c6.204,0,11.231-5.029,11.231-11.232V30.449H41.928z"/>
		<path fill="#EE2F58" d="M28.731,15.53c-0.868-0.623-1.936-0.872-2.994-0.698c-1.058,0.183-1.987,0.757-2.61,1.632
			c-0.624,0.873-0.873,1.942-0.691,2.998c0.174,1.058,0.752,1.989,1.624,2.61c1.019,0.726,4.639,1.035,8.271,0.966
			C31.216,19.583,29.754,16.256,28.731,15.53z"/>
	</g>
	<g>
		<path fill="#414042" d="M89.937,12.117h2.842v21.231l15.895-12.102h4.304l-10.764,8.226l13.522,13.052h-4.18L99.885,31.24
			l-7.106,5.472v5.812h-2.842V12.117z"/>
		<path fill="#414042" d="M143.49,42.48c-0.861,0.087-1.682,0.172-2.585,0.172c-2.41,0-3.188-0.989-3.532-3.273
			c-1.682,1.251-4.912,3.661-11.327,3.661c-3.922,0-5.558-0.861-6.204-1.205c-1.938-1.118-3.313-3.144-3.313-5.687
			c0-2.325,1.16-4.175,2.584-5.21c3.057-2.195,9.903-2.282,18.216-2.369c0-2.539-0.042-5.341-8.785-5.341
			c-6.759,0-7.923,1.81-8.784,4.351l-2.974-0.128c0.17-0.776,0.473-1.767,1.118-2.759c2.286-3.487,6.461-4.046,10.512-4.046
			c2.713,0,6.374,0.3,8.697,1.636c2.717,1.551,2.845,4.609,2.845,5.814v9.087c0,2.324,0.473,3.317,3.533,3.144V42.48z
			 M121.395,32.964c-1.292,0.902-1.81,2.107-1.81,3.229c0,3.922,4.866,4.309,6.805,4.309c4.308,0,8.056-1.595,9.604-3.362
			c1.334-1.55,1.421-3.529,1.379-6.157C130.912,30.981,123.938,31.066,121.395,32.964z M130.439,13.195l4.437,5.683h-2.241
			l-3.487-3.661l-3.574,3.661h-2.327l4.651-5.683H130.439z"/>
		<path fill="#414042" d="M166.273,12.117h2.845v30.407h-2.845V39.25c-0.903,0.99-1.595,1.767-3.276,2.539
			c-2.021,0.949-4.22,1.295-6.415,1.295c-6.548,0-12.922-3.748-12.922-11.284c0-7.451,6.635-11.197,13.05-11.197
			c4.225,0,8.056,1.637,9.563,4.049V12.117z M164.807,37.357c1.164-1.595,1.467-3.661,1.467-5.687c0-4.48-2.108-6.071-2.8-6.589
			c-1.897-1.421-4.995-2.24-7.152-2.068c-4.088,0.172-9.39,2.454-9.473,8.831c0,4.78,3.446,8.826,10.164,8.826
			C160.761,40.671,163.474,39.165,164.807,37.357z"/>
		<path fill="#414042" d="M199.178,32.061c0,6.372-5.517,11.066-13.439,11.066c-8.701,0-13.311-5.297-13.311-11.197
			c0-6.674,5.384-11.499,13.915-11.37C195.343,20.688,199.178,26.631,199.178,32.061z M175.658,31.93
			c0,5.813,4.481,8.787,10.039,8.787c6.113,0,10.292-3.404,10.292-8.83c0-5.986-4.995-9.087-10.383-9.002
			C180.098,23.014,175.658,26.244,175.658,31.93z"/>
	</g>
</g>
</svg>
