<svg xmlns="http://www.w3.org/2000/svg" viewBox="0 0 28.14 18.94"><defs><style>.cls-1{fill:#231f20;}</style></defs><title>Booking fees</title><g id="Layer_2" data-name="Layer 2"><g id="Talent_Settings" data-name="Talent Settings"><path class="cls-1" d="M14.48,14.42v-.11c-.56,0-1.09,0-1.61-.08a7.5,7.5,0,0,1-1.17,2,19.05,19.05,0,0,0,2.82.24Z"/><path class="cls-1" d="M12,10.39A6.09,6.09,0,0,0,7.86,5.82a6.06,6.06,0,1,0,4.28,5.79A6.31,6.31,0,0,0,12,10.39Zm-5.95.41a2.3,2.3,0,0,1,.62,4.51v.54a.61.61,0,0,1-.61.6.6.6,0,0,1-.61-.6v-.53a2.32,2.32,0,0,1-1.7-2.23.61.61,0,1,1,1.21,0A1.09,1.09,0,1,0,6.06,12a2.3,2.3,0,0,1-.58-4.52V7.23a.61.61,0,1,1,1.21,0V7.5A2.3,2.3,0,0,1,8.37,9.72a.61.61,0,0,1-.61.61.62.62,0,0,1-.61-.61A1.09,1.09,0,1,0,6.07,10.8Z"/><path class="cls-1" d="M14.47,13.09l0-2.16-1.1,0c0,.24,0,.48,0,.72A7.59,7.59,0,0,1,13.22,13C13.62,13.07,14,13.09,14.47,13.09Z"/><path class="cls-1" d="M21.13,3a7.58,7.58,0,0,1-1.32.53,18.33,18.33,0,0,1-5,.64,18.13,18.13,0,0,1-4.83-.59,6.43,6.43,0,0,1-1.32-.51L8.67,4.8a6.63,6.63,0,0,1,1.9,1.08h0a17.39,17.39,0,0,0,4.15.46,16.92,16.92,0,0,0,4.69-.6c1.32-.4,1.61-.82,1.61-.9a.4.4,0,0,1,.06-.25V3Z"/><path class="cls-1" d="M19.45.59A16.84,16.84,0,0,0,14.76,0a16.32,16.32,0,0,0-4.62.59c-1.29.39-1.57.78-1.57.9h0c0,.13.4.55,1.71.92A16.38,16.38,0,0,0,14.76,3a17.31,17.31,0,0,0,4.69-.58c1.32-.4,1.62-.82,1.62-.9S20.77,1,19.45.59Z"/><path class="cls-1" d="M28.12,17.44V15.61a6.86,6.86,0,0,1-1.28.52,17.73,17.73,0,0,1-5,.64,19,19,0,0,1-4.57-.52,8.05,8.05,0,0,1-1.51-.56l0,1.77h0c0,.09.26.5,1.55.9a16.65,16.65,0,0,0,4.62.57,16.39,16.39,0,0,0,4.63-.59c1.29-.4,1.57-.82,1.57-.91Z"/><path class="cls-1" d="M21.12,6.41a7.77,7.77,0,0,1-1.31.52,18,18,0,0,1-5,.64A21.09,21.09,0,0,1,12,7.39a7.22,7.22,0,0,1,1.09,2.27c.52,0,1.09.06,1.67.06h.06c1-1.1,3.69-1.65,6.3-1.72V6.41Z"/><path class="cls-1" d="M26.8,12.76a17.9,17.9,0,0,1-5,.62A17.73,17.73,0,0,1,17,12.79a6.52,6.52,0,0,1-1.33-.51l0,1.4v.51c.48.6,2.75,1.36,6.12,1.36A16.74,16.74,0,0,0,26.49,15c1.32-.4,1.6-.81,1.6-.9s0-.14,0-.2h0V12.25A7,7,0,0,1,26.8,12.76Z"/><path class="cls-1" d="M26.52,9.81a17,17,0,0,0-4.69-.58h-.11a16.33,16.33,0,0,0-4.34.52c-1.26.35-1.69.75-1.75.92v.05c0,.12.4.54,1.71.92a16.8,16.8,0,0,0,4.48.54,16.6,16.6,0,0,0,4.63-.57c1.35-.4,1.66-.82,1.66-.91h0C28.12,10.6,27.81,10.2,26.52,9.81Z"/></g></g></svg>