<svg xmlns="http://www.w3.org/2000/svg" viewBox="0 0 16 24.81"><defs><style>.cls-1{fill:#231f20;}</style></defs><title>donation settings</title><g id="Layer_2" data-name="Layer 2"><g id="Talent_Settings" data-name="Talent Settings"><path class="cls-1" d="M9,12.46l2.93,3.27.51-.55C14,13.42,15.29,12,15.78,10A8.14,8.14,0,0,0,8.13,0,8,8,0,0,0,0,8.05C0,12,1.43,12.74,12,24.56a.74.74,0,0,0,.52.25h0a.7.7,0,0,0,.51-.22l2.07-2.06a.73.73,0,0,0,0-1c-7-7.86-9.81-11-9.95-11.2a3.59,3.59,0,0,1-.6-3.56A3.69,3.69,0,0,1,8,4.36a3.68,3.68,0,0,1,3.63,3.69,3.64,3.64,0,0,1-.82,2.28c-.2.29-.76.92-1.84,2.13Z"/><path class="cls-1" d="M.87,22.53l2.06,2.06a.74.74,0,0,0,.52.22h0A.74.74,0,0,0,4,24.56c1.09-1.22,2.1-2.33,3-3.35-1-1.08-2-2.25-3-3.27L.85,21.53a.74.74,0,0,0,0,1Z"/></g></g></svg>