<svg xmlns="http://www.w3.org/2000/svg" viewBox="0 0 17.8 19.59"><defs><style>.cls-1{fill:#231f20;}</style></defs><title>notification</title><g id="Layer_2" data-name="Layer 2"><g id="FAN_Settings" data-name="FAN Settings"><path class="cls-1" d="M8.9,19.59a3.34,3.34,0,0,0,3.27-2.68H5.63A3.34,3.34,0,0,0,8.9,19.59Z"/><path class="cls-1" d="M17.8,14.4v-.11a.13.13,0,0,1,0-.06v0s0,0,0-.06a.09.09,0,0,1,0-.05l0-.05a.43.43,0,0,0,0,0l0-.05a.14.14,0,0,1,0-.06l0,0,0-.07v0a.43.43,0,0,0,0-.07v0l0-.07v0l-.05-.07v0l-.06-.06,0,0s0,0,0,0l-.09-.09,0,0a6,6,0,0,1-1.36-1.69,1.17,1.17,0,0,0-.05-.11l-.08-.15a6.25,6.25,0,0,1-.57-2.38h0c0-.06,0-.12,0-.19V7.83h0V6.23a6.23,6.23,0,0,0-4.53-6h0c-.24-.06-.49-.11-.74-.15l-.13,0A5.32,5.32,0,0,0,8.9,0a5.52,5.52,0,0,0-.81.06L8,.08c-.25,0-.49.09-.73.15h0a6.23,6.23,0,0,0-4.54,6v1.6h0V8.9h0a6.07,6.07,0,0,1-.57,2.38L2,11.43,2,11.54A6,6,0,0,1,.6,13.23l0,0-.09.09s0,0,0,0l0,0-.05.06v0l-.06.07v0l0,.07s0,0,0,0a.16.16,0,0,0,0,.07l0,0,0,.07v0l0,.06s0,0,0,.05,0,0,0,0,0,0,0,.05a.09.09,0,0,0,0,.05.13.13,0,0,0,0,.06.06.06,0,0,0,0,0,.13.13,0,0,0,0,.06.09.09,0,0,1,0,.05v.33s0,0,0,.06v0H0v0s0,0,0,.07a0,0,0,0,1,0,0l0,0,0,.11h0a1.66,1.66,0,0,0,1.54,1H16.15a1.66,1.66,0,0,0,1.54-1h0s0-.08,0-.11v-.07a.64.64,0,0,0,0-.07v0h0v0a.13.13,0,0,0,0-.06v-.16s0,0,0-.06Z"/></g></g></svg>