<svg xmlns="http://www.w3.org/2000/svg" viewBox="0 0 14.11 18.82"><defs><style>.cls-1{fill:#231f20;}</style></defs><title>password</title><g id="Layer_2" data-name="Layer 2"><g id="FAN_Settings" data-name="FAN Settings"><path class="cls-1" d="M13.72,7.06H12.55V5.49a5.49,5.49,0,0,0-11,0V7.06H.39A.39.39,0,0,0,0,7.45v9.8a1.57,1.57,0,0,0,1.57,1.57h11a1.56,1.56,0,0,0,1.56-1.57V7.45A.38.38,0,0,0,13.72,7.06ZM8.23,15.25a.37.37,0,0,1-.1.3.39.39,0,0,1-.29.13H6.27A.39.39,0,0,1,6,15.55a.41.41,0,0,1-.1-.3L6.13,13a1.54,1.54,0,0,1-.64-1.26,1.57,1.57,0,1,1,3.13,0A1.52,1.52,0,0,1,8,13Zm2-8.19H3.92V5.49a3.14,3.14,0,1,1,6.27,0Z"/></g></g></svg>