<svg xmlns="http://www.w3.org/2000/svg" viewBox="0 0 22.86 15.71"><defs><style>.cls-1{fill:#010101;}</style></defs><title>Payments</title><g id="Layer_2" data-name="Layer 2"><g id="FAN_Settings" data-name="FAN Settings"><path class="cls-1" d="M22.86,3.71V2.5A2.5,2.5,0,0,0,20.36,0H2.5A2.5,2.5,0,0,0,0,2.5V3.71a.22.22,0,0,0,.22.22H22.63A.22.22,0,0,0,22.86,3.71Z"/><path class="cls-1" d="M0,5.58v7.63a2.5,2.5,0,0,0,2.5,2.5H20.36a2.5,2.5,0,0,0,2.5-2.5V5.58a.22.22,0,0,0-.23-.22H.22A.22.22,0,0,0,0,5.58Zm5.71,5.85a.71.71,0,0,1-.71.71H4.29a.71.71,0,0,1-.72-.71v-.72A.71.71,0,0,1,4.29,10H5a.71.71,0,0,1,.71.71Z"/></g></g></svg>