<svg xmlns="http://www.w3.org/2000/svg" viewBox="0 0 16.6 18.54"><defs><style>.cls-1{fill:#231f20;}</style></defs><title>Asset 2</title><g id="Layer_2" data-name="Layer 2"><g id="FAN_Settings" data-name="FAN Settings"><path class="cls-1" d="M8.3,0a4.82,4.82,0,1,0,4.82,4.82A4.83,4.83,0,0,0,8.3,0Z"/><path class="cls-1" d="M16.57,13.48a4.8,4.8,0,0,0-.49-.89A6,6,0,0,0,11.94,10a.93.93,0,0,0-.61.14,5.13,5.13,0,0,1-6.06,0A.81.81,0,0,0,4.66,10a5.94,5.94,0,0,0-4.14,2.6,4.81,4.81,0,0,0-.48.89.47.47,0,0,0,0,.4,8.81,8.81,0,0,0,.57.84,7.72,7.72,0,0,0,1,1.09,11.24,11.24,0,0,0,1,.84,9.6,9.6,0,0,0,11.44,0,8.59,8.59,0,0,0,1-.84,9.23,9.23,0,0,0,1-1.09,6.54,6.54,0,0,0,.57-.84A.36.36,0,0,0,16.57,13.48Z"/></g></g></svg>