<svg xmlns="http://www.w3.org/2000/svg" viewBox="0 0 24.36 24.47"><defs><style>.cls-1{fill:#231f20;}</style></defs><title>record greeting</title><g id="Layer_2" data-name="Layer 2"><g id="Talent_Settings" data-name="Talent Settings"><path class="cls-1" d="M15.73,4.5V5.56h1.74V2.27A2.16,2.16,0,0,0,15.31.11v1a2.43,2.43,0,0,1-2.43,2.43H8A2.43,2.43,0,0,1,5.58,1.12v-1A2.16,2.16,0,0,0,3.42,2.27v8.45h1a2.26,2.26,0,0,1,.9.18V4.5Z"/><path class="cls-1" d="M7,9.32c0,.22.14,1.92.79,2.32,0-.1.38-2.09,3.68-3.29,1.58-.58,1.4,3.29,1.4,3.29.48-.23.69-1.35.76-2a5,5,0,0,1-1.31-3.06A3.92,3.92,0,0,0,10.2,6.1C8.12,6.15,6.91,7.3,7,9.32Z"/><path class="cls-1" d="M8,2h4.86a1,1,0,0,0,1-1V0H7V1A1,1,0,0,0,8,2Z"/><path class="cls-1" d="M17.32,11.29A4.91,4.91,0,0,1,15.73,11v8.16l-1.64-3.35a1.06,1.06,0,0,0-.53-.55l-1.45-.81-.6-.66-1.18,1.32L9.18,13.8l-.68.69-1.4.8a1,1,0,0,0-.42.38,2.51,2.51,0,0,1,.18.92,2.41,2.41,0,0,1-1.25,2.12,2,2,0,0,1,.23.47A2.38,2.38,0,0,1,6,20a2.43,2.43,0,0,1-2.43,2.43H3.43a2.15,2.15,0,0,0,2.15,2h9.73a2.16,2.16,0,0,0,2.16-2.16v-11ZM12.18,22.35H8.74a.72.72,0,0,1,0-1.43h3.44a.72.72,0,0,1,0,1.43Z"/><path class="cls-1" d="M4.59,19.92a1,1,0,1,0-1,1A1,1,0,0,0,4.59,19.92Z"/><path class="cls-1" d="M2,10.61v-2H1a1,1,0,0,0,0,2Z"/><path class="cls-1" d="M4.44,14a1,1,0,1,0,0-2H1.87a1,1,0,1,0,0,2Z"/><path class="cls-1" d="M4.44,17.48a1,1,0,1,0,0-2H2.72a1,1,0,0,0,0,2Z"/><path class="cls-1" d="M23.65,11.33H22V9.22a2.34,2.34,0,0,0-2.34-2.34H13.82a3.6,3.6,0,0,0,3.52,2.87h.86a.71.71,0,0,1,.71.71V20.92h.77A2.34,2.34,0,0,0,22,18.58h1.63a.71.71,0,0,0,.71-.71V12A.71.71,0,0,0,23.65,11.33Z"/></g></g></svg>