<svg xmlns="http://www.w3.org/2000/svg" viewBox="0 0 17.19 19.46"><defs><style>.cls-1{fill:#010101;}</style></defs><title>security-privacy</title><g id="Layer_2" data-name="Layer 2"><g id="FAN_Settings" data-name="FAN Settings"><path class="cls-1" d="M3.48,6.32a17.37,17.37,0,0,0,.65,3.5A9.5,9.5,0,0,0,8.6,15.77a9.52,9.52,0,0,0,4.46-5.95,17.37,17.37,0,0,0,.65-3.5L8.6,3.76Z"/><path class="cls-1" d="M17.18,4.55a.56.56,0,0,0-.31-.48l-8-4a.57.57,0,0,0-.51,0l-8,4A.56.56,0,0,0,0,4.55a20,20,0,0,0,.81,6.12,14.86,14.86,0,0,0,2.45,5,11.67,11.67,0,0,0,5.12,3.8.76.76,0,0,0,.21,0l.2,0a11.67,11.67,0,0,0,5.12-3.8,14.86,14.86,0,0,0,2.45-5A20,20,0,0,0,17.18,4.55ZM8.85,16.92A.57.57,0,0,1,8.6,17a.58.58,0,0,1-.26-.06A10.5,10.5,0,0,1,3,10.15,18.33,18.33,0,0,1,2.32,6a.54.54,0,0,1,.31-.54L8.34,2.61a.57.57,0,0,1,.51,0l5.71,2.86a.54.54,0,0,1,.31.54,18.33,18.33,0,0,1-.72,4.14,10.5,10.5,0,0,1-5.3,6.77Z"/></g></g></svg>