<svg xmlns="http://www.w3.org/2000/svg" viewBox="0 0 22.18 25.18"><defs><style>.cls-1{fill:#010101;}</style></defs><title>signout</title><g id="Layer_2" data-name="Layer 2"><g id="FAN_Settings" data-name="FAN Settings"><path class="cls-1" d="M8.4,2.13A3.57,3.57,0,0,0,4.11,4.79.44.44,0,1,0,5,5,2.7,2.7,0,0,1,8.2,3a.44.44,0,1,0,.2-.85Z"/><path class="cls-1" d="M2.45,4.85A.44.44,0,0,0,3,4.52,4.73,4.73,0,0,1,8.67,1,.43.43,0,0,0,9.19.68.43.43,0,0,0,8.87.15,5.61,5.61,0,0,0,2.13,4.33.43.43,0,0,0,2.45,4.85Z"/><path class="cls-1" d="M19.08,7.41a.43.43,0,0,0-.61,0,.44.44,0,0,0,0,.62,2.7,2.7,0,0,1,0,3.82.43.43,0,0,0,.62.61A3.56,3.56,0,0,0,19.08,7.41Z"/><path class="cls-1" d="M20.51,6a.43.43,0,1,0-.61.62A4.73,4.73,0,0,1,20,13.27a.44.44,0,0,0,0,.62.42.42,0,0,0,.61,0A5.6,5.6,0,0,0,20.51,6Z"/><path class="cls-1" d="M16.3,11.27l-.21-.09a1.88,1.88,0,0,0-.55-.15,2.08,2.08,0,0,0-.62-2.69,1.37,1.37,0,0,0-.2-.13A2,2,0,0,0,13.86,8a2.1,2.1,0,0,0-.8-2.24,1.48,1.48,0,0,0-.21-.13,2.12,2.12,0,0,0-1.58-.17,2,2,0,0,0-.95.59,2.18,2.18,0,0,0-.46-.45l-.21-.13A2.16,2.16,0,0,0,8,5.24a2.13,2.13,0,0,0-1.27,1L4,11.21a2,2,0,0,0-1-1.21,2,2,0,0,0-1.57-.17A2.06,2.06,0,0,0,.06,12.3L1,18.64l-.43.95a1.53,1.53,0,0,0,.66,2L7.51,25a1.52,1.52,0,0,0,.72.19,1.54,1.54,0,0,0,1.23-.62l.76-1A10.15,10.15,0,0,0,13,21a26.24,26.24,0,0,0,2.42-3.77l1.71-3.12a2.13,2.13,0,0,0,.19-1.58A2,2,0,0,0,16.3,11.27ZM16,12.88a.73.73,0,0,1-.07.56l-1.71,3.12c-1.7,3.1-3.27,5-4.8,5.84a.63.63,0,0,0-.2.2l-.83,1.16a.19.19,0,0,1-.23.06L1.87,20.39a.18.18,0,0,1-.07-.23l.57-1.28,0-.05L1.38,12a.75.75,0,0,1,.06-.55.77.77,0,0,1,.44-.35.64.64,0,0,1,.2,0,.73.73,0,0,1,.35.09.77.77,0,0,1,.35.44l.49,1.51a.63.63,0,0,0,.29.38.68.68,0,0,0,.91-.28L8,6.87a.8.8,0,0,1,1-.28l.07,0a.75.75,0,0,1,.2,1L6.85,12a.7.7,0,0,0,.28,1,.73.73,0,0,0,1-.28L11.18,7a.77.77,0,0,1,1-.28l.08,0a.76.76,0,0,1,.2,1L9.4,13.38a.72.72,0,0,0,.28,1,.73.73,0,0,0,1-.28l2.41-4.4a.77.77,0,0,1,1-.29l.08,0a.77.77,0,0,1,.21,1L12,14.77a.66.66,0,0,0-.06.55.72.72,0,0,0,.35.44.7.7,0,0,0,.93-.27l1.48-2.71a.77.77,0,0,1,.94-.35l.05,0A.7.7,0,0,1,16,12.88Z"/></g></g></svg>