<svg xmlns="http://www.w3.org/2000/svg" viewBox="0 0 22.35 23.32"><defs><style>.cls-1{fill:#010101;}</style></defs><title>tos</title><g id="Layer_2" data-name="Layer 2"><g id="FAN_Settings" data-name="FAN Settings"><path class="cls-1" d="M16.67,10.65h.13a4.73,4.73,0,0,1,.65,0V2.75A2.76,2.76,0,0,0,14.69,0H2.75A2.75,2.75,0,0,0,0,2.75V18.58a2.75,2.75,0,0,0,2.75,2.75h8a7,7,0,0,1,6-10.68ZM9.87,4.49H14a.69.69,0,0,1,0,1.37H9.87a.69.69,0,0,1,0-1.37Zm0,2.74H14a.68.68,0,0,1,0,1.36H9.87a.68.68,0,0,1,0-1.36ZM7.58,16.84H3.5a.69.69,0,1,1,0-1.37H7.58a.69.69,0,0,1,0,1.37Zm0-2.78H3.5a.69.69,0,1,1,0-1.37H7.58a.69.69,0,0,1,0,1.37Zm0-2.73H3.5A.69.69,0,1,1,3.5,10H7.58a.69.69,0,0,1,0,1.37Zm0-2.74H3.5a.68.68,0,1,1,0-1.36H7.58a.68.68,0,0,1,0,1.36Zm0-2.73H3.5a.69.69,0,1,1,0-1.37H7.58a.69.69,0,0,1,0,1.37Zm1.61,4.78A.68.68,0,0,1,9.87,10h2a.69.69,0,1,1,0,1.37h-2A.68.68,0,0,1,9.19,10.64Z"/><path class="cls-1" d="M20.72,13.66A5.64,5.64,0,0,0,16.77,12h-.1A5.67,5.67,0,0,0,11,17.65a5.67,5.67,0,0,0,5.67,5.67,5.68,5.68,0,0,0,4-9.66ZM19.1,16.72l-2.17,2.7a.68.68,0,0,1-.53.26.66.66,0,0,1-.4-.13l-1.62-1.17a.68.68,0,0,1-.15-1,.68.68,0,0,1,.95-.15l1.09.79L18,15.87a.68.68,0,0,1,1.07.85Z"/></g></g></svg>