<svg xmlns="http://www.w3.org/2000/svg" viewBox="0 0 23.75 23.72"><defs><style>.cls-1{fill:#231f20;}</style></defs><title>vacation mode</title><g id="Layer_2" data-name="Layer 2"><g id="Talent_Settings" data-name="Talent Settings"><path class="cls-1" d="M8.48,12.56l1.72-.9-1.72-.91,1-1.64-1.94.07.07-1.94L6,8.28,5.1,6.56,4.2,8.28l-1.65-1,.08,1.94L.68,9.11l1,1.64L0,11.66l1.72.9-1,1.65,1.95-.08-.08,1.95L4.2,15l.9,1.72L6,15l1.64,1-.07-1.95,1.94.08ZM5.1,14.21a2.55,2.55,0,1,1,2.55-2.55A2.55,2.55,0,0,1,5.1,14.21Z"/><path class="cls-1" d="M21.37,21.76a2.47,2.47,0,0,1-3.16,0,3.86,3.86,0,0,0-4.76,0,2.47,2.47,0,0,1-3.16,0,3.7,3.7,0,0,0-2.38-.82,3.69,3.69,0,0,0-2.37.82A2.35,2.35,0,0,1,4,22.33a2.35,2.35,0,0,1-1.58-.57A3.7,3.7,0,0,0,0,20.94v1.39a2.39,2.39,0,0,1,1.58.56A3.7,3.7,0,0,0,4,23.72a3.7,3.7,0,0,0,2.38-.83,2.49,2.49,0,0,1,3.15,0,3.83,3.83,0,0,0,4.76,0,2.51,2.51,0,0,1,3.16,0,3.83,3.83,0,0,0,4.76,0,2.39,2.39,0,0,1,1.58-.56V20.94A3.7,3.7,0,0,0,21.37,21.76Z"/><path class="cls-1" d="M23,5.07a7.59,7.59,0,0,0-3.68-3.69l.33-.91L18.37,0l-.32.9A7.67,7.67,0,0,0,8.9,5.68l-.28.77.81.15A12.18,12.18,0,0,1,13.13,8l.17.1h.25a7.24,7.24,0,0,1,1.81.23l-3.24,8.91h-.25A19,19,0,0,0,2,19.92a5.79,5.79,0,0,1,1.21.7c.41.28.45.32.78.32s.37,0,.78-.32a5.21,5.21,0,0,1,6.35,0c.41.28.45.32.78.32s.37,0,.78-.32a5.22,5.22,0,0,1,6.36,0c.41.28.45.32.78.32s.37,0,.78-.32a5.79,5.79,0,0,1,1.21-.7,19,19,0,0,0-8.21-2.67l3.1-8.5a7.16,7.16,0,0,1,1.58,1l.15.12.18,0a12.05,12.05,0,0,1,3.71,1.34l.71.41.28-.77A7.61,7.61,0,0,0,23,5.07Z"/></g></g></svg>