<?xml version="1.0" encoding="UTF-8" ?>
<!DOCTYPE svg PUBLIC "-//W3C//DTD SVG 1.1//EN" "http://www.w3.org/Graphics/SVG/1.1/DTD/svg11.dtd">
<svg width="54pt" height="52pt" viewBox="0 0 54 52" version="1.1" xmlns="http://www.w3.org/2000/svg">
<g id="#ee2a59ff">
<path fill="#ee2a59" opacity="1.00" d=" M 21.42 0.00 L 32.22 0.00 C 32.33 1.46 32.42 2.92 32.53 4.38 C 34.49 5.07 36.42 5.86 38.31 6.72 C 39.47 5.74 40.64 4.79 41.84 3.88 C 44.30 6.41 46.89 8.81 49.34 11.35 C 48.35 12.45 47.36 13.53 46.38 14.63 C 47.28 16.50 48.08 18.40 48.81 20.34 C 50.29 20.45 51.77 20.54 53.25 20.64 C 53.25 24.16 53.26 27.68 53.24 31.20 C 51.75 31.30 50.27 31.40 48.79 31.51 C 48.08 33.44 47.28 35.34 46.39 37.19 C 47.37 38.31 48.36 39.43 49.35 40.54 C 46.81 43.03 44.27 45.52 41.75 48.02 C 40.59 47.02 39.42 46.05 38.23 45.09 C 36.38 46.02 34.47 46.80 32.52 47.48 C 32.42 48.94 32.32 50.40 32.22 51.86 C 28.73 51.89 25.23 51.81 21.74 52.00 L 21.52 52.00 C 21.38 50.48 21.25 48.97 21.11 47.45 C 19.15 46.76 17.22 46.00 15.34 45.10 C 14.21 46.07 13.07 47.04 11.95 48.02 C 9.41 45.56 6.93 43.04 4.34 40.64 C 5.31 39.49 6.28 38.33 7.27 37.19 C 6.39 35.32 5.58 33.41 4.84 31.48 C 3.36 31.39 1.87 31.30 0.39 31.22 C 0.36 27.69 0.37 24.17 0.38 20.65 C 1.88 20.55 3.38 20.45 4.88 20.34 C 5.59 18.41 6.39 16.51 7.28 14.66 C 6.30 13.54 5.31 12.43 4.32 11.32 C 6.85 8.81 9.38 6.30 11.97 3.84 C 13.08 4.81 14.21 5.77 15.33 6.74 C 17.28 5.87 19.24 5.04 21.23 4.26 C 21.29 2.84 21.36 1.42 21.42 0.00 M 24.13 16.13 C 20.77 17.00 17.93 19.67 16.93 23.01 C 15.02 28.59 19.16 34.99 24.90 35.89 C 30.89 37.24 37.28 32.20 37.19 26.03 C 37.45 19.47 30.36 14.19 24.13 16.13 Z" />
</g>
</svg>
