<?xml version="1.0" encoding="UTF-8" ?>
<!DOCTYPE svg PUBLIC "-//W3C//DTD SVG 1.1//EN" "http://www.w3.org/Graphics/SVG/1.1/DTD/svg11.dtd">
<svg width="50pt" height="56pt" viewBox="0 0 50 56" version="1.1" xmlns="http://www.w3.org/2000/svg">
<g id="#ee2a59ff">
<path fill="#ee2a59" opacity="1.00" d=" M 8.96 12.95 C 12.25 5.77 20.89 1.98 28.47 4.00 C 23.73 12.90 30.78 24.01 40.66 24.24 C 40.46 29.61 42.35 34.97 46.53 38.48 C 49.41 40.70 47.36 45.63 43.84 45.49 C 30.90 45.65 17.94 45.55 5.00 45.53 C 2.81 45.74 1.25 44.13 0.00 42.58 L 0.00 40.72 C 1.88 37.77 4.96 35.68 6.20 32.31 C 8.88 26.14 5.87 19.01 8.96 12.95 Z" />
<path fill="#ee2a59" opacity="1.00" d=" M 15.37 47.84 C 21.23 47.81 27.09 47.76 32.95 47.87 C 31.35 56.95 16.80 57.03 15.37 47.84 Z" />
</g>
</svg>
