<svg xmlns="http://www.w3.org/2000/svg" viewBox="0 0 117.92 38.25"><defs><style>.cls-1{fill:#fff;}</style></defs><title>Asset 1</title><g id="Layer_2" data-name="Layer 2"><g id="livetype"><path class="cls-1" d="M7.57,38.25h-.9a13,13,0,0,1-1.87-.16,6,6,0,0,1-1.66-.55,5.41,5.41,0,0,1-1.4-1,5.6,5.6,0,0,1-1-1.39,6.09,6.09,0,0,1-.54-1.66A13.14,13.14,0,0,1,0,31.58c0-.21,0-.91,0-.91V7.57s0-.69,0-.9A13.13,13.13,0,0,1,.18,4.8,6,6,0,0,1,.72,3.14a5.41,5.41,0,0,1,1-1.4,5.65,5.65,0,0,1,1.4-1A5.71,5.71,0,0,1,4.79.18,11.84,11.84,0,0,1,6.67,0H111.25a11.49,11.49,0,0,1,1.86.17,5.73,5.73,0,0,1,1.67.54,5.6,5.6,0,0,1,2.42,2.42,5.68,5.68,0,0,1,.53,1.65,12.09,12.09,0,0,1,.18,1.89v.89c0,.37,0,.73,0,1.09V29.59c0,.36,0,.72,0,1.08v.92a14.28,14.28,0,0,1-.17,1.86,6.16,6.16,0,0,1-.54,1.67,5.55,5.55,0,0,1-1,1.38,5.45,5.45,0,0,1-1.4,1,6.18,6.18,0,0,1-1.67.55,13,13,0,0,1-1.87.16H7.57Z"/><g id="_Group_" data-name=" Group "><g id="_Group_2" data-name=" Group 2"><g id="_Group_3" data-name=" Group 3"><path id="_Path_" data-name=" Path " d="M24.12,19a5.16,5.16,0,0,1,2.45-4.31,5.26,5.26,0,0,0-4.15-2.25c-1.74-.18-3.44,1.05-4.33,1.05s-2.27-1-3.75-1a5.53,5.53,0,0,0-4.65,2.84c-2,3.48-.51,8.6,1.42,11.41,1,1.38,2.09,2.92,3.56,2.87s2-.92,3.72-.92,2.23.92,3.74.88,2.52-1.38,3.45-2.78a11.3,11.3,0,0,0,1.58-3.21A5,5,0,0,1,24.12,19Z"/><path id="_Path_2" data-name=" Path 2" d="M21.28,10.6A5,5,0,0,0,22.44,7,5.13,5.13,0,0,0,19.11,8.7a4.76,4.76,0,0,0-1.19,3.49A4.24,4.24,0,0,0,21.28,10.6Z"/></g></g><path d="M41.43,26.26H36.7l-1.14,3.36h-2L38,17.2h2.08L44.6,29.62h-2Zm-4.24-1.54h3.75l-1.85-5.45H39Z"/><path d="M54.29,25.09c0,2.82-1.51,4.63-3.78,4.63a3.08,3.08,0,0,1-2.85-1.59h0v4.49H45.76v-12h1.8v1.5h0a3.21,3.21,0,0,1,2.88-1.6C52.77,20.47,54.29,22.29,54.29,25.09Zm-1.91,0c0-1.83-1-3-2.4-3s-2.37,1.23-2.37,3,1,3.05,2.37,3.05,2.4-1.2,2.4-3.05Z"/><path d="M64.25,25.09c0,2.82-1.5,4.63-3.78,4.63a3.09,3.09,0,0,1-2.85-1.59h0v4.49H55.72v-12h1.8v1.5h0a3.21,3.21,0,0,1,2.88-1.6C62.74,20.47,64.25,22.29,64.25,25.09Zm-1.91,0c0-1.83-1-3-2.39-3s-2.38,1.23-2.38,3,1,3.05,2.38,3.05S62.34,26.94,62.34,25.09Z"/><path d="M70.84,26.16c.13,1.23,1.33,2,3,2s2.7-.81,2.7-1.92-.68-1.54-2.29-1.93L72.6,24c-2.28-.55-3.34-1.62-3.34-3.35,0-2.14,1.87-3.61,4.52-3.61s4.42,1.47,4.48,3.61H76.39c-.11-1.24-1.14-2-2.64-2s-2.52.76-2.52,1.86c0,.88.66,1.4,2.26,1.79l1.37.34c2.54.6,3.6,1.62,3.6,3.44,0,2.32-1.85,3.78-4.79,3.78-2.76,0-4.62-1.42-4.74-3.67Z"/><path d="M82.47,18.42v2.15H84.2V22H82.47v5c0,.78.35,1.14,1.1,1.14.21,0,.41,0,.62-.05v1.47a5.15,5.15,0,0,1-1,.08c-1.83,0-2.54-.69-2.54-2.44V22H79.29V20.57h1.32V18.42Z"/><path d="M85.19,25.09c0-2.84,1.68-4.63,4.29-4.63s4.3,1.79,4.3,4.63-1.66,4.64-4.3,4.64S85.19,28,85.19,25.09Zm6.7,0c0-1.95-.9-3.1-2.41-3.1s-2.4,1.16-2.4,3.1.9,3.11,2.4,3.11,2.41-1.14,2.41-3.11Z"/><path d="M95.31,20.57h1.77v1.54h0a2.15,2.15,0,0,1,2.17-1.64,3.39,3.39,0,0,1,.64.07v1.74a2.6,2.6,0,0,0-.83-.11,1.87,1.87,0,0,0-2,1.79,2.71,2.71,0,0,0,0,.29v5.37H95.31Z"/><path d="M108.51,27c-.25,1.65-1.85,2.77-3.9,2.77-2.63,0-4.27-1.76-4.27-4.59s1.65-4.68,4.19-4.68,4.08,1.72,4.08,4.46v.64h-6.39v.11a2.36,2.36,0,0,0,2.14,2.56h.29a2.07,2.07,0,0,0,2.1-1.28Zm-6.28-2.7h4.52a2.18,2.18,0,0,0-2-2.3h-.17a2.29,2.29,0,0,0-2.3,2.28Z"/></g><g id="_Group_4" data-name=" Group 4"><path d="M37,7.86a2.63,2.63,0,0,1,2.82,2.44,2.26,2.26,0,0,1,0,.52c0,1.91-1,3-2.81,3H34.8v-6ZM35.72,13h1.13a1.88,1.88,0,0,0,2-1.76,1.7,1.7,0,0,0,0-.39,1.88,1.88,0,0,0-1.61-2.12,2.17,2.17,0,0,0-.36,0H35.72Z"/><path d="M40.81,11.57a2.13,2.13,0,1,1,4.24-.41,1.41,1.41,0,0,1,0,.41,2.13,2.13,0,1,1-4.24.41A1.41,1.41,0,0,1,40.81,11.57Zm3.33,0c0-1-.44-1.55-1.21-1.55s-1.2.57-1.2,1.55.43,1.55,1.2,1.55,1.21-.57,1.21-1.55Z"/><path d="M50.7,13.82h-.92l-.93-3.31h-.07l-.93,3.31h-.91L45.7,9.32h.9l.8,3.44h.07l.93-3.44h.85l.92,3.44h.08l.8-3.44h.89Z"/><path d="M53,9.32h.86V10h.06a1.36,1.36,0,0,1,1.35-.81,1.47,1.47,0,0,1,1.57,1.35,1.83,1.83,0,0,1,0,.33v2.91h-.88V11.13c0-.72-.32-1.08-1-1.08a1,1,0,0,0-1.08,1,.86.86,0,0,0,0,.16v2.63H53Z"/><path d="M58.22,7.56h.89v6.26h-.89Z"/><path d="M60.34,11.57a2.13,2.13,0,0,1,4.25-.41,1.41,1.41,0,0,1,0,.41,2.13,2.13,0,1,1-4.25.41A2.8,2.8,0,0,1,60.34,11.57Zm3.34,0c0-1-.44-1.55-1.21-1.55s-1.21.57-1.21,1.55.44,1.55,1.21,1.55S63.68,12.55,63.68,11.57Z"/><path d="M65.53,12.55c0-.81.6-1.28,1.67-1.34l1.22-.08v-.38c0-.48-.31-.75-.92-.75s-.84.18-.94.5H65.7c.09-.77.82-1.27,1.84-1.27s1.77.56,1.77,1.52v3.07h-.86v-.63h-.07A1.53,1.53,0,0,1,67,13.9a1.36,1.36,0,0,1-1.49-1.22A.57.57,0,0,1,65.53,12.55Zm2.89-.39v-.37l-1.1.07c-.62,0-.9.25-.9.65s.35.64.84.64a1.06,1.06,0,0,0,1.16-1Z"/><path d="M70.47,11.57c0-1.42.74-2.32,1.87-2.32a1.46,1.46,0,0,1,1.38.79h.07V7.56h.89v6.26h-.85v-.71h-.07a1.57,1.57,0,0,1-1.42.79C71.2,13.9,70.47,13,70.47,11.57Zm.92,0c0,.95.45,1.53,1.21,1.53s1.21-.58,1.21-1.53S73.34,10,72.6,10s-1.21.58-1.21,1.53Z"/><path d="M78.36,11.57a2.13,2.13,0,1,1,4.24-.41,1.41,1.41,0,0,1,0,.41,2.13,2.13,0,1,1-4.24.41A1.41,1.41,0,0,1,78.36,11.57Zm3.33,0c0-1-.44-1.55-1.21-1.55s-1.2.57-1.2,1.55.43,1.55,1.2,1.55S81.69,12.55,81.69,11.57Z"/><path d="M83.8,9.32h.85V10h.07a1.36,1.36,0,0,1,1.34-.81,1.47,1.47,0,0,1,1.57,1.35,1.22,1.22,0,0,1,0,.33v2.91h-.89V11.13c0-.72-.31-1.08-1-1.08a1,1,0,0,0-1.08,1,.86.86,0,0,0,0,.16v2.63H83.8Z"/><path d="M92.64,8.2V9.34h1v.75h-1V12.4c0,.48.2.68.64.68a1.94,1.94,0,0,0,.34,0v.74a2.63,2.63,0,0,1-.49,0c-1,0-1.38-.35-1.38-1.22V10.09H91V9.34h.71V8.2Z"/><path d="M94.83,7.56h.88V10h.07a1.39,1.39,0,0,1,1.38-.8,1.48,1.48,0,0,1,1.56,1.4,2.72,2.72,0,0,1,0,.28v2.9h-.89V11.13c0-.71-.34-1.08-1-1.08a1.05,1.05,0,0,0-1.13,1,.54.54,0,0,0,0,.18v2.63h-.89Z"/><path d="M103.89,12.61a1.83,1.83,0,0,1-2,1.3,2,2,0,0,1-2.1-2,1.83,1.83,0,0,1,0-.33,2.08,2.08,0,0,1,1.78-2.34l.29,0c1.26,0,2,.86,2,2.27v.31h-3.18v0a1.2,1.2,0,0,0,1.09,1.29H102a1.06,1.06,0,0,0,1.07-.54Zm-3.13-1.45H103A1.1,1.1,0,0,0,102,10h-.1a1.15,1.15,0,0,0-1.17,1.14v0Z"/></g></g></g></svg>