<?xml version="1.0" encoding="UTF-8" ?>
<!DOCTYPE svg PUBLIC "-//W3C//DTD SVG 1.1//EN" "http://www.w3.org/Graphics/SVG/1.1/DTD/svg11.dtd">
<svg width="113pt" height="13pt" viewBox="0 0 113 13" version="1.1" xmlns="http://www.w3.org/2000/svg">
<g id="#ee2a59ff">
<path fill="#ee2a59" opacity="1.00" d=" M 87.17 0.00 L 89.67 0.00 C 96.66 4.29 105.06 5.08 113.00 6.33 L 113.00 6.68 C 104.40 7.53 96.19 10.13 88.01 12.76 L 91.90 13.00 L 87.33 13.00 C 88.40 11.63 89.38 10.18 90.38 8.76 C 62.58 8.75 34.77 8.74 6.97 8.77 C 4.61 8.68 1.94 9.24 0.00 7.53 L 0.00 5.61 C 1.05 4.46 2.51 4.13 4.01 4.24 C 32.81 4.25 61.60 4.27 90.39 4.23 C 89.36 2.78 88.29 1.37 87.17 0.00 Z" />
</g>
</svg>
