<?xml version="1.0" encoding="UTF-8" ?>
<!DOCTYPE svg PUBLIC "-//W3C//DTD SVG 1.1//EN" "http://www.w3.org/Graphics/SVG/1.1/DTD/svg11.dtd">
<svg width="24pt" height="28pt" viewBox="0 0 24 28" version="1.1" xmlns="http://www.w3.org/2000/svg">
<g id="#ffffffff">
<path fill="#ffffff" opacity="1.00" d=" M 11.04 0.00 L 12.04 0.00 C 12.94 1.64 14.21 3.12 14.74 4.94 C 14.90 7.43 11.59 8.54 9.97 6.89 C 8.00 4.52 10.97 2.15 11.94 0.10 L 11.04 0.00 Z" />
<path fill="#ffffff" opacity="1.00" d=" M 10.59 11.44 C 10.61 10.80 10.64 9.52 10.66 8.88 C 11.33 8.88 12.68 8.88 13.35 8.88 C 13.37 9.52 13.40 10.79 13.41 11.43 C 16.99 11.83 22.11 9.97 24.00 14.18 L 24.00 18.10 C 21.92 21.76 18.45 18.38 16.72 16.37 C 15.29 17.37 14.35 19.14 12.63 19.66 C 10.20 20.16 8.99 17.56 7.30 16.37 C 5.51 18.36 2.27 21.69 0.00 18.23 L 0.00 14.25 C 1.74 9.92 7.07 11.86 10.59 11.44 Z" />
<path fill="#ffffff" opacity="1.00" d=" M 0.00 20.93 C 2.65 22.54 5.52 21.03 7.33 18.95 C 9.53 22.29 14.42 22.30 16.64 18.97 C 18.48 21.01 21.33 22.54 24.00 20.94 L 24.00 28.00 L 0.00 28.00 L 0.00 20.93 Z" />
</g>
</svg>
