<?xml version="1.0" encoding="UTF-8" ?>
<!DOCTYPE svg PUBLIC "-//W3C//DTD SVG 1.1//EN" "http://www.w3.org/Graphics/SVG/1.1/DTD/svg11.dtd">
<svg width="45pt" height="53pt" viewBox="0 0 45 53" version="1.1" xmlns="http://www.w3.org/2000/svg">
<g id="#ee2a59ff">
<path fill="#ee2a59" opacity="1.00" d=" M 0.73 20.63 C 7.99 13.89 15.35 7.26 22.66 0.58 C 29.90 7.14 37.11 13.73 44.32 20.33 C 44.91 22.77 44.39 25.39 44.56 27.89 C 37.30 21.22 29.98 14.63 22.74 7.94 C 15.32 14.49 8.12 21.27 0.76 27.87 C 0.75 25.46 0.75 23.04 0.73 20.63 Z" />
<path fill="#ee2a59" opacity="1.00" d=" M 0.75 32.08 C 8.03 25.39 15.35 18.74 22.67 12.08 C 29.98 18.72 37.27 25.38 44.56 32.04 C 44.49 39.03 44.73 46.02 44.42 53.00 L 2.30 53.00 L 0.81 52.27 C 0.66 45.54 0.80 38.81 0.75 32.08 Z" />
</g>
</svg>
