<?xml version="1.0" encoding="UTF-8" ?>
<!DOCTYPE svg PUBLIC "-//W3C//DTD SVG 1.1//EN" "http://www.w3.org/Graphics/SVG/1.1/DTD/svg11.dtd">
<svg width="74pt" height="112pt" viewBox="0 0 74 112" version="1.1" xmlns="http://www.w3.org/2000/svg">
<g id="#231f20ff">
<path fill="#231f20" opacity="1.00" d=" M 33.83 0.00 L 40.30 0.00 C 48.59 0.93 56.65 4.40 62.61 10.31 C 69.07 16.46 73.03 24.97 74.00 33.81 L 74.00 39.78 C 73.02 52.68 63.52 62.25 55.07 71.07 C 50.52 66.15 45.99 61.20 41.47 56.24 C 46.00 50.62 52.76 45.81 53.67 38.13 C 54.91 29.00 47.15 20.11 38.02 19.78 C 28.93 18.99 20.27 26.86 20.24 35.99 C 20.07 40.44 22.13 44.68 25.13 47.87 C 39.96 64.37 55.07 80.61 69.95 97.06 C 71.32 98.32 71.30 100.64 69.86 101.84 C 66.40 105.29 62.97 108.79 59.28 112.00 L 56.87 112.00 C 55.43 110.79 54.09 109.46 52.84 108.06 C 40.01 93.93 26.75 80.20 14.10 65.91 C 7.56 58.33 0.37 50.03 0.00 39.49 L 0.00 33.27 C 0.90 25.07 4.42 17.14 10.25 11.25 C 16.42 4.80 24.99 0.94 33.83 0.00 Z" />
<path fill="#231f20" opacity="1.00" d=" M 4.10 96.99 C 8.92 91.59 13.88 86.31 18.76 80.95 C 23.37 85.86 27.94 90.80 32.50 95.75 C 27.40 101.15 22.58 106.84 17.23 112.00 L 14.81 112.00 C 11.01 108.87 7.61 105.27 4.11 101.81 C 2.66 100.59 2.72 98.24 4.10 96.99 Z" />
</g>
</svg>
