<?xml version="1.0" encoding="UTF-8" ?>
<!DOCTYPE svg PUBLIC "-//W3C//DTD SVG 1.1//EN" "http://www.w3.org/Graphics/SVG/1.1/DTD/svg11.dtd">
<svg width="22pt" height="20pt" viewBox="0 0 22 20" version="1.1" xmlns="http://www.w3.org/2000/svg">
<g id="#0a09094d">
<path fill="#0a0909" opacity="0.30" d=" M 0.00 0.00 L 2.20 0.00 C 5.18 2.59 7.97 5.38 11.00 7.90 C 14.03 5.38 16.82 2.61 19.75 0.00 L 22.00 0.00 L 22.00 1.86 C 19.24 4.71 16.13 7.19 13.33 10.00 C 16.13 12.80 19.21 15.30 22.00 18.10 L 22.00 20.00 L 19.79 20.00 C 16.82 17.41 14.03 14.62 11.00 12.10 C 7.97 14.62 5.18 17.39 2.24 20.00 L 0.00 20.00 L 0.00 18.00 C 2.85 15.30 5.89 12.78 8.67 10.00 C 5.89 7.22 2.87 4.70 0.00 2.02 L 0.00 0.00 Z" />
</g>
</svg>
