<?xml version="1.0" encoding="UTF-8" ?>
<!DOCTYPE svg PUBLIC "-//W3C//DTD SVG 1.1//EN" "http://www.w3.org/Graphics/SVG/1.1/DTD/svg11.dtd">
<svg width="97pt" height="97pt" viewBox="0 0 97 97" version="1.1" xmlns="http://www.w3.org/2000/svg">
<g id="#010101ff">
<path fill="#010101" opacity="1.00" d=" M 41.59 0.00 L 55.23 0.00 C 68.58 2.31 81.19 9.71 88.69 21.14 C 92.41 26.72 95.10 33.05 96.16 39.70 C 96.29 40.22 96.30 40.91 97.00 41.06 L 97.00 53.05 C 95.19 68.20 86.52 82.51 73.23 90.22 C 67.70 93.77 61.24 95.21 55.04 97.00 L 43.34 97.00 C 30.37 95.10 17.95 88.59 10.02 77.98 C 4.09 70.39 0.82 60.98 0.00 51.43 L 0.00 44.94 C 0.91 35.82 3.96 26.83 9.51 19.48 C 17.01 8.94 29.02 2.34 41.59 0.00 M 39.48 6.88 C 29.82 8.75 20.96 14.26 14.84 21.94 C 7.05 31.56 3.82 44.71 6.42 56.81 C 8.65 68.39 16.13 78.74 26.22 84.77 C 35.02 90.08 45.82 91.97 55.90 89.95 C 66.37 87.91 76.00 81.72 82.14 72.99 C 88.35 64.41 91.11 53.41 89.66 42.92 C 88.15 29.88 79.94 17.93 68.54 11.51 C 59.84 6.49 49.30 4.91 39.48 6.88 Z" />
<path fill="#010101" opacity="1.00" d=" M 25.08 28.97 C 26.61 28.30 28.36 28.69 29.97 28.57 C 42.64 28.59 55.31 28.55 67.99 28.58 C 72.03 28.29 75.73 32.07 75.59 36.09 C 75.60 44.75 75.60 53.41 75.59 62.07 C 75.75 66.09 72.14 69.89 68.06 69.64 C 54.70 69.65 41.33 69.63 27.96 69.65 C 23.80 70.06 19.75 66.19 20.18 61.99 C 20.17 53.30 20.15 44.61 20.18 35.92 C 19.96 32.81 22.24 29.97 25.08 28.97 M 31.08 34.26 L 31.22 34.93 C 36.86 39.10 42.34 43.49 47.91 47.75 C 53.48 43.10 59.44 38.94 65.02 34.30 C 53.71 34.22 42.39 34.29 31.08 34.26 M 25.70 37.79 C 25.81 46.20 25.50 54.64 25.86 63.04 C 26.15 63.25 26.75 63.66 27.04 63.87 C 40.99 63.91 54.95 63.97 68.90 63.84 C 69.12 63.58 69.55 63.06 69.76 62.81 C 69.73 54.53 70.12 46.18 69.57 37.94 C 62.43 43.46 55.55 49.42 48.00 54.35 C 47.47 54.11 46.41 53.64 45.88 53.40 C 39.16 48.18 32.46 42.95 25.70 37.79 Z" />
</g>
<g id="#ffffffff">
<path fill="#ffffff" opacity="1.00" d=" M 39.48 6.88 C 49.30 4.91 59.84 6.49 68.54 11.51 C 79.94 17.93 88.15 29.88 89.66 42.92 C 91.11 53.41 88.35 64.41 82.14 72.99 C 76.00 81.72 66.37 87.91 55.90 89.95 C 45.82 91.97 35.02 90.08 26.22 84.77 C 16.13 78.74 8.65 68.39 6.42 56.81 C 3.82 44.71 7.05 31.56 14.84 21.94 C 20.96 14.26 29.82 8.75 39.48 6.88 M 25.08 28.97 C 22.24 29.97 19.96 32.81 20.18 35.92 C 20.15 44.61 20.17 53.30 20.18 61.99 C 19.75 66.19 23.80 70.06 27.96 69.65 C 41.33 69.63 54.70 69.65 68.06 69.64 C 72.14 69.89 75.75 66.09 75.59 62.07 C 75.60 53.41 75.60 44.75 75.59 36.09 C 75.73 32.07 72.03 28.29 67.99 28.58 C 55.31 28.55 42.64 28.59 29.97 28.57 C 28.36 28.69 26.61 28.30 25.08 28.97 Z" />
<path fill="#ffffff" opacity="1.00" d=" M 31.08 34.26 C 42.39 34.29 53.71 34.22 65.02 34.30 C 59.44 38.94 53.48 43.10 47.91 47.75 C 42.34 43.49 36.86 39.10 31.22 34.93 L 31.08 34.26 Z" />
<path fill="#ffffff" opacity="1.00" d=" M 25.70 37.79 C 32.46 42.95 39.16 48.18 45.88 53.40 C 46.41 53.64 47.47 54.11 48.00 54.35 C 55.55 49.42 62.43 43.46 69.57 37.94 C 70.12 46.18 69.73 54.53 69.76 62.81 C 69.55 63.06 69.12 63.58 68.90 63.84 C 54.95 63.97 40.99 63.91 27.04 63.87 C 26.75 63.66 26.15 63.25 25.86 63.04 C 25.50 54.64 25.81 46.20 25.70 37.79 Z" />
</g>
</svg>
