<?xml version="1.0" encoding="UTF-8" ?>
<!DOCTYPE svg PUBLIC "-//W3C//DTD SVG 1.1//EN" "http://www.w3.org/Graphics/SVG/1.1/DTD/svg11.dtd">
<svg width="32pt" height="21pt" viewBox="0 0 32 21" version="1.1" xmlns="http://www.w3.org/2000/svg">
<g id="#ffffffff">
<path fill="#ffffff" opacity="1.00" d=" M 2.94 0.00 L 29.11 0.00 C 29.69 1.27 30.94 2.01 32.00 2.85 L 32.00 18.20 C 30.93 19.01 29.66 19.73 29.07 21.00 L 2.89 21.00 C 2.31 19.73 1.06 18.99 0.00 18.15 L 0.00 2.78 C 1.07 1.98 2.36 1.27 2.94 0.00 M 4.83 2.38 C 8.55 4.97 12.28 7.54 16.00 10.12 C 19.72 7.54 23.45 4.97 27.16 2.37 C 19.72 2.38 12.27 2.37 4.83 2.38 M 2.63 3.94 C 2.71 8.59 2.46 13.25 2.74 17.89 L 3.34 18.49 C 10.92 18.82 18.52 18.51 26.11 18.64 C 27.24 18.55 29.63 18.99 29.33 17.08 C 29.45 12.70 29.33 8.32 29.37 3.94 C 24.89 6.96 20.54 10.16 16.00 13.08 C 11.46 10.15 7.10 6.96 2.63 3.94 Z" />
</g>
</svg>
