<?xml version="1.0" encoding="utf-8"?>
<!-- Generator: Adobe Illustrator 16.0.0, SVG Export Plug-In . SVG Version: 6.00 Build 0)  -->
<!DOCTYPE svg PUBLIC "-//W3C//DTD SVG 1.1//EN" "http://www.w3.org/Graphics/SVG/1.1/DTD/svg11.dtd">
<svg version="1.1" id="Layer_1" xmlns="http://www.w3.org/2000/svg" xmlns:xlink="http://www.w3.org/1999/xlink" x="0px" y="0px"
	 width="47.931px" height="47.635px" viewBox="0 0 47.931 47.635" enable-background="new 0 0 47.931 47.635" xml:space="preserve">
<g>
	<g>
		<path fill="#FFFFFF" d="M47.931,23.966C47.931,10.729,37.2,0,23.966,0S0,10.729,0,23.966c0,11.962,8.763,21.873,20.221,23.669
			v-16.74h-6.085v-6.929h6.085v-5.282c0-6.004,3.577-9.323,9.054-9.323c2.62,0,5.362,0.469,5.362,0.469v5.897h-3.023
			c-2.976,0-3.905,1.848-3.905,3.744v4.495h6.649l-1.065,6.929h-5.584v16.74C39.167,45.839,47.931,35.925,47.931,23.966
			L47.931,23.966z"/>
	</g>
</g>
</svg>
