<?xml version="1.0" encoding="UTF-8" ?>
<!DOCTYPE svg PUBLIC "-//W3C//DTD SVG 1.1//EN" "http://www.w3.org/Graphics/SVG/1.1/DTD/svg11.dtd">
<svg width="47pt" height="46pt" viewBox="0 0 47 46" version="1.1" xmlns="http://www.w3.org/2000/svg">
<g id="#ee2a59ff">
<path fill="#ee2a59" opacity="1.00" d=" M 21.50 0.00 L 25.41 0.00 C 36.51 0.76 46.28 10.09 47.00 21.29 L 47.00 25.09 C 46.03 36.10 36.45 45.18 25.51 46.00 L 21.60 46.00 C 10.66 45.25 1.09 36.22 0.00 25.26 L 0.00 20.92 C 0.97 9.91 10.55 0.81 21.50 0.00 M 17.36 4.55 C 10.49 6.69 4.98 12.83 3.92 19.99 C 2.70 26.94 5.84 34.30 11.51 38.43 C 17.00 42.59 24.68 43.57 31.04 40.94 C 37.26 38.47 42.09 32.66 43.08 26.01 C 44.16 19.78 41.77 13.15 37.11 8.91 C 31.94 4.04 24.10 2.34 17.36 4.55 Z" />
<path fill="#ee2a59" opacity="1.00" d=" M 12.54 24.45 C 9.95 20.49 12.20 14.16 17.11 13.49 C 19.79 12.83 22.11 14.49 23.89 16.28 C 25.75 14.44 28.21 12.75 30.97 13.54 C 35.70 14.37 37.78 20.45 35.33 24.34 C 32.51 28.82 27.86 31.68 23.95 35.11 C 19.99 31.76 15.43 28.86 12.54 24.45 Z" />
</g>
<g id="#ffffffff">
<path fill="#ffffff" opacity="1.00" d=" M 17.36 4.55 C 24.10 2.34 31.94 4.04 37.11 8.91 C 41.77 13.15 44.16 19.78 43.08 26.01 C 42.09 32.66 37.26 38.47 31.04 40.94 C 24.68 43.57 17.00 42.59 11.51 38.43 C 5.84 34.30 2.70 26.94 3.92 19.99 C 4.98 12.83 10.49 6.69 17.36 4.55 M 12.54 24.45 C 15.43 28.86 19.99 31.76 23.95 35.11 C 27.86 31.68 32.51 28.82 35.33 24.34 C 37.78 20.45 35.70 14.37 30.97 13.54 C 28.21 12.75 25.75 14.44 23.89 16.28 C 22.11 14.49 19.79 12.83 17.11 13.49 C 12.20 14.16 9.95 20.49 12.54 24.45 Z" />
</g>
</svg>
