<?xml version="1.0" encoding="UTF-8" ?>
<!DOCTYPE svg PUBLIC "-//W3C//DTD SVG 1.1//EN" "http://www.w3.org/Graphics/SVG/1.1/DTD/svg11.dtd">
<svg width="97pt" height="97pt" viewBox="0 0 97 97" version="1.1" xmlns="http://www.w3.org/2000/svg">
<g id="#010000ff">
<path fill="#010000" opacity="1.00" d=" M 44.56 0.00 L 51.95 0.00 C 65.54 1.16 78.60 7.97 86.86 18.88 C 92.53 25.97 95.57 34.76 97.00 43.63 L 97.00 52.85 C 95.48 66.87 88.12 80.32 76.43 88.37 C 70.43 92.77 63.29 95.14 56.16 97.00 L 50.54 97.00 C 52.43 96.88 54.32 96.68 56.21 96.51 C 56.16 85.25 56.25 73.99 56.18 62.73 C 59.92 62.72 63.67 62.70 67.41 62.72 C 68.26 58.04 68.91 53.33 69.73 48.64 C 65.21 48.61 60.69 48.64 56.17 48.61 C 56.75 43.83 54.78 38.19 58.06 34.12 C 61.20 30.49 66.65 33.54 70.23 31.48 C 70.38 27.61 70.20 23.74 70.26 19.87 C 61.94 18.69 51.58 17.44 45.37 24.45 C 39.42 31.01 40.97 40.49 40.86 48.61 C 36.74 48.63 32.63 48.63 28.52 48.63 C 28.56 53.32 28.54 58.01 28.53 62.70 C 32.64 62.69 36.74 62.69 40.85 62.71 C 40.73 74.00 40.86 85.28 40.77 96.57 C 25.44 94.30 11.63 83.98 4.95 70.02 C 2.33 64.87 1.05 59.20 0.00 53.57 L 0.00 41.48 L 0.14 44.02 C 1.23 34.09 5.17 24.42 11.77 16.88 C 19.93 7.18 32.03 1.32 44.56 0.00 Z" />
</g>
<g id="#fefeffff">
<path fill="#fefeff" opacity="1.00" d=" M 45.37 24.45 C 51.58 17.44 61.94 18.69 70.26 19.87 C 70.20 23.74 70.38 27.61 70.23 31.48 C 66.65 33.54 61.20 30.49 58.06 34.12 C 54.78 38.19 56.75 43.83 56.17 48.61 C 60.69 48.64 65.21 48.61 69.73 48.64 C 68.91 53.33 68.26 58.04 67.41 62.72 C 63.67 62.70 59.92 62.72 56.18 62.73 C 56.25 73.99 56.16 85.25 56.21 96.51 C 54.32 96.68 52.43 96.88 50.54 97.00 L 46.51 97.00 C 44.60 96.91 42.68 96.75 40.77 96.57 C 40.86 85.28 40.73 74.00 40.85 62.71 C 36.74 62.69 32.64 62.69 28.53 62.70 C 28.54 58.01 28.56 53.32 28.52 48.63 C 32.63 48.63 36.74 48.63 40.86 48.61 C 40.97 40.49 39.42 31.01 45.37 24.45 Z" />
</g>
</svg>
