<svg xmlns="http://www.w3.org/2000/svg" viewBox="0 0 67.38 96.06"><defs><style>.cls-1{fill:#010101;}.cls-2{fill:none;stroke:#58595b;stroke-linecap:round;stroke-linejoin:round;stroke-width:2px;}.cls-3{fill:#58595b;}.cls-4{fill:#fff;}.cls-5{fill:#ee2f58;}</style></defs><title>Asset 2</title><g id="Layer_2" data-name="Layer 2"><g id="Book-1a"><path class="cls-1" d="M16.11,46.42A4.09,4.09,0,1,1,12,50.51,4.09,4.09,0,0,1,16.11,46.42Z"/><path class="cls-1" d="M21.4,55.9H12.53L6.34,53.55,3.83,46.43A2,2,0,1,0,.11,47.74l2.82,8a2,2,0,0,0,1.16,1.19l6.78,2.57V82.05l-7.12.56a2.37,2.37,0,1,0,.37,4.72l9.3-.73a2.36,2.36,0,0,0,2.18-2.36V74.79h1V93.7a2.37,2.37,0,0,0,4.73,0s0-33.85,0-33.86h.07a.79.79,0,0,1,.8.71V75a2,2,0,1,0,3.94,0V60.54A4.71,4.71,0,0,0,21.4,55.9Z"/><path class="cls-1" d="M66.94,48.81a1.84,1.84,0,0,0-2.59-.2L52.77,58.5a12.55,12.55,0,0,1-3.67.39A5.09,5.09,0,0,1,44,53.8a4.89,4.89,0,0,1,.13-1.15L40,44.58a1.84,1.84,0,1,0-3.27,1.68l7.41,14.43L41.77,79.34a1,1,0,0,0,1,1.19h1.43V93.8a2.21,2.21,0,0,0,4.42,0V80.53h.95V85a2.22,2.22,0,0,0,1.8,2.17c7.64,1.43,7.41,1.44,7.8,1.44a2.21,2.21,0,0,0,.41-4.38L54,83.14V80.53h1.43a1,1,0,0,0,1-1.19L53.94,62.12s10.84-9,12.8-10.71a1.85,1.85,0,0,0,.2-2.6Z"/><path class="cls-1" d="M48.49,50a3.81,3.81,0,1,1-3.16,4.38A3.81,3.81,0,0,1,48.49,50Z"/><path class="cls-1" d="M63.58,57.57l-3,1.06v4.7c-.67,0-1.6.24-1.6.85s.64.85,1.43.85,1.55-.35,1.43-1V59.53l1-.35a1.26,1.26,0,0,0,.78-1.61Z"/><path class="cls-1" d="M59.51,46c.68,0,1.55-.35,1.42-1V40.54l3.42-1.2V43c-.68,0-1.63.23-1.63.85,0,.47.64.85,1.43.85s1.44-.38,1.44-.85h0V38.56a.71.71,0,0,0-1-.67l-4.48,1.57a.75.75,0,0,0-.51.72v4.16c-.66-.05-1.6.23-1.6.84s.64.85,1.44.85Z"/><path class="cls-1" d="M39.09,57.6a1.73,1.73,0,0,1-.71-.71.17.17,0,0,0-.3,0,1.73,1.73,0,0,1-.71.71.17.17,0,0,0,0,.3,1.73,1.73,0,0,1,.71.71.17.17,0,0,0,.3,0,1.73,1.73,0,0,1,.71-.71A.17.17,0,0,0,39.09,57.6Z"/><path class="cls-1" d="M54,46.72a1.76,1.76,0,0,1-.72-.71.16.16,0,0,0-.29,0,1.82,1.82,0,0,1-.72.71.18.18,0,0,0,0,.3,1.82,1.82,0,0,1,.72.71.16.16,0,0,0,.29,0A1.76,1.76,0,0,1,54,47,.18.18,0,0,0,54,46.72Z"/><path class="cls-1" d="M37.43,53a1.32,1.32,0,0,1-.51-.51.12.12,0,0,0-.21,0,1.25,1.25,0,0,1-.51.51.12.12,0,0,0,0,.21,1.2,1.2,0,0,1,.51.51.12.12,0,0,0,.21,0,1.32,1.32,0,0,1,.51-.51A.12.12,0,0,0,37.43,53Z"/><path class="cls-1" d="M47.35,39.15l-3,1.06v4.7c-.66,0-1.6.24-1.6.84s.65.86,1.44.86,1.55-.36,1.43-1V41.11l1-.35A1.26,1.26,0,0,0,47.35,39.15Z"/><path class="cls-1" d="M43,38.93a2.28,2.28,0,0,1,.91-.91.22.22,0,0,0,0-.38,2.28,2.28,0,0,1-.91-.91.22.22,0,0,0-.38,0,2.34,2.34,0,0,1-.91.91.22.22,0,0,0,0,.38,2.34,2.34,0,0,1,.91.91A.22.22,0,0,0,43,38.93Z"/><path class="cls-1" d="M43,33.56a1.29,1.29,0,0,1,.5.51.13.13,0,0,0,.22,0,1.29,1.29,0,0,1,.5-.51.12.12,0,0,0,0-.21,1.17,1.17,0,0,1-.5-.51.13.13,0,0,0-.22,0,1.17,1.17,0,0,1-.5.51A.12.12,0,0,0,43,33.56Z"/><path class="cls-2" d="M11,42.76a22.52,22.52,0,1,1,42.95-4"/><path class="cls-3" d="M54.16,37.42l3-.74,0,.1-3,3.63c-.77,1.34-1.54,2.69-2.32,4l.42-4.63L52,35.14l.07-.07Z"/><path class="cls-4" d="M57.1,24.79A15.07,15.07,0,1,1,55.3,3.55,15.08,15.08,0,0,1,57.1,24.79Z"/><path class="cls-5" d="M50.17,15.14a1.3,1.3,0,0,0,1.09-1.46,1.29,1.29,0,0,0-1.46-1.09,6.68,6.68,0,0,0-2.13,1.61A6.71,6.71,0,0,0,50.17,15.14Z"/><path class="cls-5" d="M42.22,9.77a2.87,2.87,0,0,1,5.06.07,2.64,2.64,0,0,1,.17.52l1.88-3.62L43.18,3.57a3.59,3.59,0,0,0-4.84,1.54L36.33,9,42,11.9A2.85,2.85,0,0,1,42.22,9.77Z"/><path class="cls-5" d="M49.58,11a2.8,2.8,0,0,1,2.11.54A2.85,2.85,0,0,1,52.84,14a2.67,2.67,0,0,1-.29,1.14A2.85,2.85,0,0,1,51,16.55l5.47,2.83,2-3.87a3.6,3.6,0,0,0-1.54-4.85l-6-3.09L49,11.19A2.45,2.45,0,0,1,49.58,11Z"/><path class="cls-5" d="M40.59,17.58l.61-1.1-1.09-.39,3.75-1.2-8.35-4.31L33.76,14a3.59,3.59,0,0,0,1.54,4.84l.76.4L34.7,21.84a.35.35,0,0,0,.37.5l5.23-.94,1.14.59,2.9-5.6Z"/><path class="cls-5" d="M47.44,16.74l1.18,3.73-1-.64L47.13,21,45.94,17.2,43,22.81l6,3.09a3.6,3.6,0,0,0,4.85-1.54L55.61,21Z"/><path class="cls-5" d="M45.88,10.56a1.35,1.35,0,0,0-.75-.64,1.29,1.29,0,0,0-1.62.83,1.24,1.24,0,0,0,.08,1,6.4,6.4,0,0,0,2.21,1.5A6.6,6.6,0,0,0,45.88,10.56Z"/></g></g></svg>