<?xml version="1.0" encoding="UTF-8" ?>
<!DOCTYPE svg PUBLIC "-//W3C//DTD SVG 1.1//EN" "http://www.w3.org/Graphics/SVG/1.1/DTD/svg11.dtd">
<svg width="30pt" height="26pt" viewBox="0 0 30 26" version="1.1" xmlns="http://www.w3.org/2000/svg">
<g id="#ffffffff">
<path fill="#ffffff" opacity="1.00" d=" M 26.68 0.00 L 29.51 0.00 C 29.63 0.07 29.88 0.22 30.00 0.29 L 30.00 2.82 C 29.15 5.22 28.13 7.55 27.18 9.92 C 25.72 9.37 24.24 8.88 22.83 8.21 C 23.71 5.32 24.60 2.28 26.68 0.00 Z" />
<path fill="#ffffff" opacity="1.00" d=" M 19.61 9.28 C 20.17 6.26 21.47 3.33 23.02 0.68 L 24.90 0.78 C 23.65 3.80 23.13 7.33 20.94 9.84 L 19.61 9.28 Z" />
<path fill="#ffffff" opacity="1.00" d=" M 0.00 16.51 C 0.66 12.63 2.21 7.21 6.98 7.03 C 10.26 7.06 11.12 10.75 11.30 13.37 C 8.08 13.65 8.27 7.01 5.25 10.00 C 2.68 12.61 2.15 16.66 2.72 20.15 C 5.05 19.05 7.41 17.92 10.02 17.64 C 9.94 18.60 9.86 19.56 9.78 20.52 C 12.00 21.16 17.78 22.06 16.09 24.99 C 13.49 24.15 10.85 23.41 8.11 23.17 C 7.76 22.65 7.08 21.61 6.74 21.10 C 4.26 22.37 0.64 22.45 0.00 19.07 L 0.00 16.51 Z" />
<path fill="#ffffff" opacity="1.00" d=" M 21.93 9.88 C 23.46 10.39 24.99 10.90 26.52 11.42 C 24.32 16.53 22.97 22.40 18.36 26.00 L 17.75 26.00 C 17.03 20.21 19.84 15.06 21.93 9.88 Z" />
</g>
</svg>
