<?xml version="1.0" encoding="utf-8"?>
<!-- Generator: Adobe Illustrator 16.0.0, SVG Export Plug-In . SVG Version: 6.00 Build 0)  -->
<!DOCTYPE svg PUBLIC "-//W3C//DTD SVG 1.1//EN" "http://www.w3.org/Graphics/SVG/1.1/DTD/svg11.dtd">
<svg version="1.1" id="Layer_1" xmlns="http://www.w3.org/2000/svg" xmlns:xlink="http://www.w3.org/1999/xlink" x="0px" y="0px"
	 width="48.219px" height="48.221px" viewBox="0 0 48.219 48.221" enable-background="new 0 0 48.219 48.221" xml:space="preserve">
<g>
	<g>
		<path fill="#FFFFFF" d="M24.109,0c-6.547,0-7.368,0.027-9.94,0.146c-2.565,0.116-4.321,0.521-5.854,1.118
			c-1.585,0.619-2.928,1.44-4.27,2.782c-1.34,1.342-2.163,2.686-2.779,4.27c-0.597,1.532-1.005,3.29-1.121,5.855
			C0.027,16.738,0,17.562,0,24.108c0,6.551,0.027,7.37,0.146,9.942c0.116,2.567,0.524,4.316,1.121,5.849
			c0.615,1.588,1.439,2.933,2.779,4.276c1.34,1.336,2.685,2.158,4.27,2.778c1.534,0.595,3.288,1.001,5.854,1.119
			c2.572,0.114,3.392,0.147,9.94,0.147s7.369-0.031,9.939-0.147c2.566-0.118,4.32-0.524,5.855-1.119
			c1.583-0.62,2.928-1.442,4.267-2.778c1.342-1.344,2.163-2.688,2.782-4.276c0.594-1.532,1.004-3.281,1.12-5.849
			c0.117-2.572,0.146-3.392,0.146-9.942c0-6.546-0.027-7.37-0.146-9.936c-0.116-2.566-0.526-4.323-1.12-5.855
			c-0.619-1.585-1.44-2.93-2.782-4.27c-1.339-1.343-2.684-2.164-4.267-2.783c-1.535-0.596-3.289-1.002-5.855-1.119
			C31.479,0.027,30.658,0,24.109,0L24.109,0L24.109,0z M24.109,4.344c6.437,0,7.2,0.025,9.743,0.143
			c2.349,0.105,3.628,0.5,4.476,0.826c1.126,0.44,1.931,0.963,2.771,1.807c0.847,0.844,1.365,1.646,1.805,2.771
			c0.331,0.85,0.724,2.126,0.832,4.475c0.114,2.547,0.139,3.309,0.139,9.743c0,6.438-0.024,7.198-0.139,9.746
			c-0.108,2.351-0.501,3.625-0.832,4.472c-0.439,1.129-0.958,1.933-1.805,2.775c-0.841,0.845-1.645,1.363-2.771,1.807
			c-0.851,0.326-2.127,0.722-4.476,0.827c-2.543,0.115-3.305,0.138-9.743,0.138c-6.437,0-7.198-0.022-9.742-0.138
			c-2.351-0.105-3.627-0.501-4.477-0.827c-1.124-0.443-1.93-0.962-2.772-1.807c-0.842-0.843-1.364-1.646-1.804-2.775
			c-0.327-0.847-0.722-2.121-0.828-4.472c-0.118-2.548-0.143-3.309-0.143-9.746c0-6.435,0.024-7.196,0.143-9.743
			c0.107-2.349,0.501-3.625,0.828-4.475c0.438-1.125,0.962-1.928,1.804-2.771c0.845-0.844,1.649-1.366,2.772-1.807
			c0.85-0.327,2.126-0.721,4.477-0.826C16.911,4.37,17.674,4.344,24.109,4.344"/>
		<path fill="#FFFFFF" d="M24.109,32.147c-4.438,0-8.037-3.6-8.037-8.039c0-4.434,3.6-8.036,8.037-8.036
			c4.439,0,8.036,3.602,8.036,8.036C32.146,28.548,28.549,32.147,24.109,32.147L24.109,32.147z M24.109,11.729
			c-6.839,0-12.382,5.544-12.382,12.379c0,6.839,5.543,12.381,12.382,12.381c6.837,0,12.379-5.542,12.379-12.381
			C36.488,17.273,30.946,11.729,24.109,11.729L24.109,11.729z"/>
		<path fill="#FFFFFF" d="M39.872,11.24c0,1.596-1.293,2.891-2.895,2.891c-1.597,0-2.893-1.294-2.893-2.891
			c0-1.598,1.296-2.896,2.893-2.896C38.579,8.345,39.872,9.643,39.872,11.24L39.872,11.24z"/>
	</g>
</g>
</svg>
