<?xml version="1.0" encoding="UTF-8" ?>
<!DOCTYPE svg PUBLIC "-//W3C//DTD SVG 1.1//EN" "http://www.w3.org/Graphics/SVG/1.1/DTD/svg11.dtd">
<svg width="59pt" height="54pt" viewBox="0 0 59 54" version="1.1" xmlns="http://www.w3.org/2000/svg">
<g id="#ee2a59ff">
<path fill="#ee2a59" opacity="1.00" d=" M 0.00 8.66 C 1.18 4.66 4.51 0.92 8.94 0.91 C 15.10 0.86 21.27 0.81 27.42 0.95 C 27.60 4.23 27.48 7.52 27.53 10.80 C 20.67 5.01 11.04 13.74 16.10 21.14 C 10.74 21.26 5.37 21.15 0.00 21.18 L 0.00 8.66 Z" />
<path fill="#ee2a59" opacity="1.00" d=" M 32.18 0.95 C 41.10 1.96 54.46 -3.05 59.00 7.64 L 59.00 21.19 C 53.76 21.16 48.53 21.23 43.29 21.17 C 48.95 13.92 38.80 4.89 32.04 10.88 C 32.14 7.57 32.05 4.26 32.18 0.95 Z" />
<path fill="#ee2a59" opacity="1.00" d=" M 20.23 18.99 C 17.52 17.47 18.90 12.79 21.98 12.95 C 25.45 12.89 26.10 17.19 27.05 19.75 C 24.77 19.67 22.41 19.79 20.23 18.99 Z" />
<path fill="#ee2a59" opacity="1.00" d=" M 33.06 19.72 C 32.46 15.88 37.12 10.09 40.45 14.55 C 42.60 19.22 36.31 20.19 33.06 19.72 Z" />
<path fill="#ee2a59" opacity="1.00" d=" M 0.00 25.72 C 8.15 25.70 16.30 25.61 24.45 25.76 C 22.55 28.03 20.17 29.86 18.31 32.16 C 19.22 33.03 20.09 33.94 20.94 34.86 C 23.19 32.91 25.10 30.59 27.46 28.76 C 27.51 33.96 27.57 39.16 27.44 44.36 C 21.07 44.65 17.59 51.18 11.91 53.31 C 11.64 50.48 11.82 47.64 11.72 44.81 C 6.54 45.23 1.62 42.36 0.00 37.31 L 0.00 25.72 Z" />
<path fill="#ee2a59" opacity="1.00" d=" M 35.19 25.75 C 43.13 25.59 51.06 25.74 59.00 25.68 L 59.00 37.44 C 55.03 48.71 41.10 43.47 32.19 44.60 C 32.03 39.26 32.14 33.92 32.14 28.58 C 34.36 30.45 36.30 32.63 38.35 34.68 C 39.12 33.45 40.36 32.79 41.66 32.23 C 39.50 30.08 37.17 28.09 35.19 25.75 Z" />
</g>
</svg>
