<?xml version="1.0" encoding="UTF-8" ?>
<!DOCTYPE svg PUBLIC "-//W3C//DTD SVG 1.1//EN" "http://www.w3.org/Graphics/SVG/1.1/DTD/svg11.dtd">
<svg width="59pt" height="62pt" viewBox="0 0 59 62" version="1.1" xmlns="http://www.w3.org/2000/svg">
<g id="#414142ff">
<path fill="#414142" opacity="1.00" d=" M 25.62 0.00 L 30.81 0.00 C 45.52 1.16 58.00 13.84 59.00 28.55 L 59.00 33.35 C 58.07 48.04 45.67 60.70 31.01 62.00 L 25.73 62.00 C 14.71 61.11 4.52 54.01 0.00 43.91 L 0.00 41.66 C 1.29 40.75 3.00 39.28 4.59 40.49 C 7.09 43.32 8.48 47.02 11.47 49.43 C 18.60 56.11 29.81 57.82 38.61 53.56 C 48.75 48.97 54.79 37.08 52.46 26.17 C 50.74 17.19 43.71 9.46 34.86 7.05 C 24.77 4.01 12.87 8.39 7.46 17.49 C 6.59 18.91 5.66 20.28 4.57 21.55 C 2.96 22.70 1.30 21.26 0.00 20.36 L 0.00 18.07 C 4.55 8.04 14.64 0.94 25.62 0.00 Z" />
<path fill="#414142" opacity="1.00" d=" M 29.24 22.77 C 27.69 20.34 30.82 17.21 33.27 18.63 C 36.04 20.84 38.32 23.59 40.89 26.02 C 43.49 28.13 44.40 32.32 41.88 34.86 C 39.08 37.91 36.24 40.97 33.01 43.57 C 30.50 44.58 27.81 41.56 29.24 39.24 C 30.68 37.34 32.43 35.71 34.16 34.08 C 28.11 33.90 22.04 34.36 16.01 33.87 C 13.45 33.01 13.43 29.02 15.98 28.14 C 22.01 27.63 28.07 28.12 34.11 27.90 C 32.38 26.30 30.70 24.63 29.24 22.77 Z" />
</g>
</svg>
