<svg xmlns="http://www.w3.org/2000/svg" viewBox="0 0 50.72 98.41"><defs><style>.cls-1{fill:none;stroke:#58595b;stroke-linecap:round;stroke-linejoin:round;stroke-width:2px;}.cls-2{fill:#58595b;}.cls-3{fill:#fff;}.cls-4{fill:#010101;}.cls-5{fill:#ee2f58;}</style></defs><title>Asset 1</title><g id="Layer_2" data-name="Layer 2"><g id="Book-1a"><path class="cls-1" d="M4.94,46.85a22.52,22.52,0,1,1,42.61-6.77"/><path class="cls-2" d="M47.71,38.75l3-.94,0,.1L48,41.72c-.69,1.39-1.37,2.79-2.06,4.18l.12-4.65-.64-4.64.06-.08Z"/><path class="cls-3" d="M34.5,15.07A15.07,15.07,0,1,1,19.43,0,15.07,15.07,0,0,1,34.5,15.07Z"/><path class="cls-4" d="M23.63,48.68a4.41,4.41,0,1,1-4.29,4.52A4.4,4.4,0,0,1,23.63,48.68Z"/><path class="cls-4" d="M39.33,63.44l5.24-6.67a2.13,2.13,0,0,0-3.35-2.62h0l-4.53,5.77-6.38-1a15,15,0,0,0-2.12-.16H21.72L15,54,12.6,45.74A2.16,2.16,0,0,0,10,44.21,2.13,2.13,0,0,0,8.5,46.86l2.59,9a2.08,2.08,0,0,0,.82,1.15l6.24,4.42c0,.1,0,.2,0,.3V76l-3,7.68a2.73,2.73,0,0,0-.16.64L13.68,95.57a2.55,2.55,0,0,0,5.06.58L20,85.27,23.22,77h1.15L29.43,96.5a2.55,2.55,0,1,0,4.93-1.28l-5-19.17V63.18l8.11,1.07a2.13,2.13,0,0,0,1.84-.81Z"/><path class="cls-4" d="M33.39,53.53c.68,0,1.54-.35,1.42-1V48l3.41-1.19V50.5c-.67,0-1.63.23-1.63.84s.65.85,1.44.85,1.44-.38,1.44-.85h0V46.06a.72.72,0,0,0-1-.67L34.05,47a.76.76,0,0,0-.5.71v4.16c-.67,0-1.6.24-1.6.85s.64.85,1.44.85Z"/><path class="cls-4" d="M5.74,54.24l-3,1.06V60c-.67,0-1.6.23-1.6.84s.64.85,1.43.85,1.55-.35,1.43-.95V56.19l1-.34A1.26,1.26,0,0,0,5.74,54.24Z"/><path class="cls-4" d="M1.4,54a2.28,2.28,0,0,1,.91-.91.22.22,0,0,0,0-.38,2.34,2.34,0,0,1-.91-.91.22.22,0,0,0-.38,0,2.28,2.28,0,0,1-.91.91.22.22,0,0,0,0,.38A2.22,2.22,0,0,1,1,54,.22.22,0,0,0,1.4,54Z"/><path class="cls-4" d="M7.08,50.09a1.85,1.85,0,0,1-.72-.72.17.17,0,0,0-.29,0,1.78,1.78,0,0,1-.72.72.17.17,0,0,0,0,.29,1.85,1.85,0,0,1,.72.72.17.17,0,0,0,.29,0,1.91,1.91,0,0,1,.72-.72A.17.17,0,0,0,7.08,50.09Z"/><path class="cls-4" d="M1.33,48.65a1.25,1.25,0,0,1,.51.51.12.12,0,0,0,.21,0,1.25,1.25,0,0,1,.51-.51.12.12,0,0,0,0-.21,1.25,1.25,0,0,1-.51-.51.12.12,0,0,0-.21,0,1.25,1.25,0,0,1-.51.51A.12.12,0,0,0,1.33,48.65Z"/><path class="cls-5" d="M23,12.16a1.26,1.26,0,0,0,.32-.93,1.24,1.24,0,0,0-.43-.88,1.28,1.28,0,0,0-1.82.1,6.56,6.56,0,0,0-.59,2.6A6.6,6.6,0,0,0,23,12.16Z"/><path class="cls-5" d="M13.46,13.19a2.93,2.93,0,0,1,0-1.18,2.86,2.86,0,0,1,3.9-2,2.08,2.08,0,0,1,.47.28l-.9-4L10.19,7.82a3.6,3.6,0,0,0-2.71,4.31l1,4.25L14.64,15A2.84,2.84,0,0,1,13.46,13.19Z"/><path class="cls-5" d="M19.89,9.41a2.81,2.81,0,0,1,2-.95,2.85,2.85,0,0,1,2.42,1.09,2.77,2.77,0,0,1,.52,1.06,2.88,2.88,0,0,1-.3,2.12l6-1.37-1-4.25a3.59,3.59,0,0,0-4.3-2.71L18.68,5.89l.9,4A1.83,1.83,0,0,1,19.89,9.41Z"/><path class="cls-5" d="M17.24,20.21,17,19l-1.08.41L18,16,8.84,18.13l.85,3.72A3.59,3.59,0,0,0,14,24.56l.84-.19.66,2.89a.34.34,0,0,0,.6.14l3.39-4.09L20.74,23l-1.4-6.15Z"/><path class="cls-5" d="M21.93,15.15l3.32,2.08L24,17.42l.38,1.14-3.33-2.09,1.41,6.16,6.56-1.5a3.6,3.6,0,0,0,2.71-4.3l-.85-3.72Z"/><path class="cls-5" d="M16.76,11.43a1.31,1.31,0,0,0-1,0,1.25,1.25,0,0,0-.7.69,1.31,1.31,0,0,0,0,1,1.35,1.35,0,0,0,.69.7,6.59,6.59,0,0,0,2.65-.29A6.53,6.53,0,0,0,16.76,11.43Z"/></g></g></svg>