<svg xmlns="http://www.w3.org/2000/svg" viewBox="0 0 12.98 12.98"><defs><style>.cls-1{fill:#e9e9ea;stroke:#a7a9ac;stroke-miterlimit:10;}.cls-2{fill:#a7a9ac;}</style></defs><title>not-favorite</title><g id="Layer_2" data-name="Layer 2"><g id="Catalog"><path class="cls-1" d="M12.48,6.49a6,6,0,1,1-6-6A6,6,0,0,1,12.48,6.49Z"/><path class="cls-2" d="M3.17,5.79A2.08,2.08,0,0,1,3.69,4.4a1.78,1.78,0,0,1,.88-.55,1.86,1.86,0,0,1,.48-.06,1.8,1.8,0,0,1,1.48.8l.07.12a.83.83,0,0,0,.08-.12,1.8,1.8,0,0,1,1.48-.8,1.77,1.77,0,0,1,1.36.61A2.08,2.08,0,0,1,10,5.79a2.56,2.56,0,0,1-.71,1.68A15.34,15.34,0,0,1,7.62,9.05l-.81.69a.32.32,0,0,1-.21.08.32.32,0,0,1-.2-.08l-.81-.69c-.44-.37-.83-.7-1.16-1A3.2,3.2,0,0,1,3.17,5.79Z"/></g></g></svg>