<?xml version="1.0" encoding="UTF-8" ?>
<!DOCTYPE svg PUBLIC "-//W3C//DTD SVG 1.1//EN" "http://www.w3.org/Graphics/SVG/1.1/DTD/svg11.dtd">
<svg width="21pt" height="25pt" viewBox="0 0 21 25" version="1.1" xmlns="http://www.w3.org/2000/svg">
<g id="#ffffffff">
<path fill="#ffffff" opacity="1.00" d=" M 9.31 0.00 L 11.48 0.00 C 16.22 0.37 19.28 4.75 18.88 9.32 C 19.41 9.36 20.47 9.44 21.00 9.47 L 21.00 24.58 C 20.89 24.68 20.67 24.89 20.56 25.00 L 0.48 25.00 C 0.36 24.89 0.12 24.68 0.00 24.57 L 0.00 9.45 C 0.53 9.42 1.59 9.36 2.13 9.34 C 1.73 4.83 4.67 0.53 9.31 0.00 M 5.75 9.37 C 8.92 9.38 12.09 9.38 15.26 9.37 C 15.55 6.54 14.12 3.25 10.90 3.18 C 7.41 2.73 5.27 6.22 5.75 9.37 M 7.93 15.78 C 8.24 16.23 8.87 17.14 9.18 17.59 C 9.08 18.39 8.89 20.00 8.80 20.80 C 9.65 20.80 11.35 20.80 12.21 20.80 C 12.11 20.00 11.92 18.40 11.82 17.61 C 12.13 17.15 12.75 16.24 13.06 15.78 C 12.35 12.99 8.66 13.00 7.93 15.78 Z" />
</g>
</svg>
