<svg xmlns="http://www.w3.org/2000/svg" viewBox="0 0 33.57 32.02"><defs><style>.cls-1{fill:none;stroke:#ee2f58;stroke-miterlimit:10;}</style></defs><title>rating-empty</title><g id="Layer_2" data-name="Layer 2"><g id="Review"><path class="cls-1" d="M33,12.25a.91.91,0,0,0-.72-.61L22.13,10.16,17.6,1a.88.88,0,0,0-.83-.47.58.58,0,0,0-.16,0s0,0,0,0h0a.9.9,0,0,0-.44.28l0,0C16.06.88,16,.9,16,1l-4.55,9.21L1.26,11.64a.94.94,0,0,0-.72.61.92.92,0,0,0,.23.92l7.36,7.17L6.39,30.47a.91.91,0,0,0,.36.88.9.9,0,0,0,.52.17.91.91,0,0,0,.42-.11l9.08-4.77v0l9.11,4.79a.88.88,0,0,0,.42.11.89.89,0,0,0,.87-1.05L25.44,20.34l7.36-7.17A.89.89,0,0,0,33,12.25Z"/></g></g></svg>