<svg xmlns="http://www.w3.org/2000/svg" viewBox="0 0 33.57 32.02"><defs><style>.cls-1{fill:#ee2f58;stroke:#ee2f58;stroke-miterlimit:10;}</style></defs><title>rating-full</title><g id="Layer_2" data-name="Layer 2"><g id="Review"><path class="cls-1" d="M33,12.26a.87.87,0,0,0-.72-.61L22.13,10.17,17.58,1A.93.93,0,0,0,16,1l-4.55,9.21L1.27,11.65a.89.89,0,0,0-.5,1.52l7.36,7.18L6.39,30.48a.88.88,0,0,0,.36.87.87.87,0,0,0,.94.06l9.09-4.78,9.1,4.78a.77.77,0,0,0,.41.11.9.9,0,0,0,.89-1L25.44,20.35l7.36-7.18A.88.88,0,0,0,33,12.26Z"/></g></g></svg>