<?xml version="1.0" encoding="UTF-8" ?>
<!DOCTYPE svg PUBLIC "-//W3C//DTD SVG 1.1//EN" "http://www.w3.org/Graphics/SVG/1.1/DTD/svg11.dtd">
<svg width="44pt" height="54pt" viewBox="0 0 44 54" version="1.1" xmlns="http://www.w3.org/2000/svg">
<g id="#ffffffff">
<path fill="#ffffff" opacity="1.00" d=" M 43.92 0.00 L 44.00 0.00 L 44.00 54.00 L 43.95 54.00 C 39.88 51.60 35.93 49.01 31.84 46.66 L 31.95 46.31 C 31.61 46.22 30.93 46.03 30.59 45.94 C 21.18 39.69 11.14 34.39 1.90 27.89 C 1.43 27.91 0.48 27.94 0.00 27.96 L 0.00 27.30 C 9.72 20.55 20.11 14.76 30.15 8.50 L 30.14 8.30 C 31.80 7.42 33.45 6.51 35.09 5.60 L 34.77 5.49 C 37.87 3.74 40.88 1.84 43.92 0.00 M 6.88 27.00 C 17.99 33.84 29.10 40.67 40.23 47.46 C 40.25 33.83 40.26 20.20 40.23 6.57 C 29.08 13.32 17.99 20.17 6.88 27.00 Z" />
</g>
<g id="#ee2a59ff">
<path fill="#ee2a59" opacity="1.00" d=" M 6.88 27.00 C 17.99 20.17 29.08 13.32 40.23 6.57 C 40.26 20.20 40.25 33.83 40.23 47.46 C 29.10 40.67 17.99 33.84 6.88 27.00 Z" />
</g>
</svg>
