<?xml version="1.0" encoding="utf-8"?>
<!-- Generator: Adobe Illustrator 16.0.0, SVG Export Plug-In . SVG Version: 6.00 Build 0)  -->
<!DOCTYPE svg PUBLIC "-//W3C//DTD SVG 1.0//EN" "http://www.w3.org/TR/2001/REC-SVG-20010904/DTD/svg10.dtd">
<svg version="1.0" id="Layer_1" xmlns="http://www.w3.org/2000/svg" xmlns:xlink="http://www.w3.org/1999/xlink" x="0px" y="0px"
	 width="24px" height="24px" viewBox="0 0 10.812 10.771" enable-background="new 0 0 10.812 10.771" xml:space="preserve">
<path fill="#ABADB0" d="M10.592,9.491L8.73,7.628c0.571-0.792,0.916-1.756,0.916-2.805C9.646,2.164,7.483,0,4.823,0
	C2.164,0,0,2.164,0,4.823c0,2.659,2.164,4.822,4.823,4.822c1.07,0,2.05-0.361,2.851-0.953l1.858,1.859
	c0.146,0.146,0.338,0.22,0.53,0.22s0.384-0.073,0.53-0.22C10.885,10.259,10.885,9.784,10.592,9.491z M1.5,4.823
	C1.5,2.991,2.991,1.5,4.823,1.5s3.323,1.491,3.323,3.323c0,1.832-1.491,3.322-3.323,3.322S1.5,6.655,1.5,4.823z"/>
</svg>
