<?xml version="1.0" encoding="utf-8"?>
<!-- Generator: Adobe Illustrator 16.0.0, SVG Export Plug-In . SVG Version: 6.00 Build 0)  -->
<!DOCTYPE svg PUBLIC "-//W3C//DTD SVG 1.0//EN" "http://www.w3.org/TR/2001/REC-SVG-20010904/DTD/svg10.dtd">
<svg version="1.0" id="Layer_1" xmlns="http://www.w3.org/2000/svg" xmlns:xlink="http://www.w3.org/1999/xlink" x="0px" y="0px"
	 width="33.569px" height="32.021px" viewBox="0 0 33.569 32.021" enable-background="new 0 0 33.569 32.021" xml:space="preserve">
<path fill="#58585a" d="M33.5,12.105c-0.162-0.503-0.591-0.867-1.124-0.951l-9.91-1.441l-4.434-8.976
	C17.811,0.283,17.333,0,16.785,0c-0.546,0-1.025,0.282-1.249,0.735l-4.433,8.978L1.19,11.155c-0.526,0.083-0.957,0.446-1.125,0.955
	c-0.158,0.507-0.022,1.053,0.357,1.422l7.171,6.99L5.9,30.392c-0.091,0.514,0.125,1.049,0.555,1.365
	c0.428,0.308,1.02,0.343,1.465,0.1l8.863-4.656l8.86,4.653c0.201,0.109,0.426,0.167,0.651,0.167c0.296,0,0.579-0.091,0.821-0.266
	c0.425-0.309,0.643-0.843,0.555-1.361l-1.694-9.871l7.175-6.992C33.531,13.157,33.665,12.61,33.5,12.105z"/>
</svg>
