<?xml version="1.0" encoding="utf-8"?>
<!-- Generator: Adobe Illustrator 16.0.0, SVG Export Plug-In . SVG Version: 6.00 Build 0)  -->
<!DOCTYPE svg PUBLIC "-//W3C//DTD SVG 1.0//EN" "http://www.w3.org/TR/2001/REC-SVG-20010904/DTD/svg10.dtd">
<svg version="1.0" id="Layer_1" xmlns="http://www.w3.org/2000/svg" xmlns:xlink="http://www.w3.org/1999/xlink" x="0px" y="0px"
	 width="33.57px" height="32.015px" viewBox="0 0 33.57 32.015" enable-background="new 0 0 33.57 32.015" xml:space="preserve">
<path fill="#EE2F58" d="M33.502,12.102c-0.16-0.504-0.589-0.87-1.125-0.954l-9.91-1.441l-4.422-8.95
	c-0.22-0.441-0.663-0.722-1.227-0.743C16.774,0.008,16.707,0,16.647,0l-0.259,0.008L16.29,0.083
	c-0.212,0.082-0.392,0.209-0.521,0.365l-4.665,9.26l-9.915,1.441c-0.527,0.083-0.956,0.447-1.119,0.95
	c-0.165,0.507-0.029,1.054,0.354,1.428l7.171,6.989l-1.694,9.873c-0.088,0.518,0.13,1.052,0.557,1.362
	c0.426,0.306,1.034,0.337,1.464,0.101l8.866-4.657l8.858,4.654c0.205,0.111,0.425,0.166,0.654,0.166
	c0.293,0,0.575-0.091,0.817-0.266c0.427-0.311,0.643-0.846,0.553-1.361l-1.692-9.871l7.175-6.992
	C33.531,13.151,33.665,12.604,33.502,12.102z M32.452,12.811l-7.55,7.356l1.781,10.392c0.025,0.146-0.036,0.295-0.153,0.38
	c-0.123,0.09-0.273,0.105-0.417,0.027L17,26.177l-0.732-0.365v0.525l-8.822,4.635c-0.119,0.066-0.285,0.053-0.403-0.031
	c-0.12-0.087-0.182-0.238-0.156-0.384l1.782-10.39l-7.547-7.356c-0.108-0.105-0.147-0.26-0.101-0.403
	c0.046-0.143,0.17-0.246,0.317-0.27l10.43-1.516l4.615-9.372c0.034-0.031,0.067-0.063,0.124-0.129
	c0.046-0.054,0.097-0.089,0.163-0.112l0.142,0.004c0.152,0,0.278,0.072,0.338,0.19l4.653,9.419l10.425,1.516
	c0.153,0.024,0.276,0.126,0.322,0.271C32.597,12.551,32.559,12.706,32.452,12.811z"/>
</svg>
