<?xml version="1.0" encoding="utf-8"?>
<!-- Generator: Adobe Illustrator 16.0.0, SVG Export Plug-In . SVG Version: 6.00 Build 0)  -->
<!DOCTYPE svg PUBLIC "-//W3C//DTD SVG 1.0//EN" "http://www.w3.org/TR/2001/REC-SVG-20010904/DTD/svg10.dtd">
<svg version="1.0" id="Layer_1" xmlns="http://www.w3.org/2000/svg" xmlns:xlink="http://www.w3.org/1999/xlink" x="0px" y="0px"
	 width="33.495px" height="31.944px" viewBox="0 0 33.495 31.944" enable-background="new 0 0 33.495 31.944" xml:space="preserve">
<path fill="#58585a" d="M33.429,12.069c-0.163-0.5-0.591-0.862-1.122-0.945l-9.889-1.439l-4.413-8.93
	c-0.219-0.44-0.663-0.72-1.229-0.741C16.733,0.008,16.667,0,16.61,0l-0.256,0.007l-0.06,0.06c-0.23,0.082-0.421,0.212-0.531,0.351
	c-0.035,0.031-0.081,0.075-0.073,0.075c0,0,0,0,0.001,0c-0.044,0.038-0.136,0.117-0.188,0.235l-4.423,8.958l-9.894,1.439
	c-0.523,0.082-0.951,0.443-1.116,0.943c-0.167,0.507-0.034,1.054,0.349,1.426l7.155,6.975l-1.688,9.847
	c-0.088,0.521,0.122,1.043,0.557,1.364c0.42,0.298,0.971,0.352,1.46,0.1l8.849-4.649l8.847,4.652
	c0.212,0.107,0.428,0.162,0.643,0.162c0.291,0,0.572-0.09,0.823-0.269c0.426-0.315,0.639-0.853,0.545-1.36l-1.685-9.848l7.148-6.973
	C33.453,13.128,33.589,12.583,33.429,12.069z M23.054,20.218l1.333,7.784l-7.125-3.767V5.333l2.985,6.243
	c0.211,0.419,0.607,0.702,1.048,0.754l7.822,1.143l-5.669,5.519C23.122,19.313,22.974,19.774,23.054,20.218z"/>
</svg>
