<?xml version="1.0" encoding="UTF-8" ?>
<!DOCTYPE svg PUBLIC "-//W3C//DTD SVG 1.1//EN" "http://www.w3.org/Graphics/SVG/1.1/DTD/svg11.dtd">
<svg width="64pt" height="64pt" viewBox="0 0 64 64" version="1.1" xmlns="http://www.w3.org/2000/svg">
<g id="#ee2a59ff">
<path fill="#ee2a59" opacity="1.00" d=" M 30.29 0.00 L 33.69 0.00 C 41.55 0.58 49.29 5.09 52.65 12.39 C 56.43 19.99 52.38 29.05 56.41 36.58 C 58.08 40.34 61.75 42.56 64.00 45.91 L 64.00 48.45 C 62.93 51.32 59.93 52.64 57.02 52.39 C 40.01 52.34 22.99 52.43 5.98 52.34 C 3.38 52.51 1.21 50.90 0.00 48.71 L 0.00 45.95 C 2.21 42.56 5.92 40.35 7.59 36.58 C 11.62 29.05 7.57 20.00 11.35 12.40 C 14.70 5.10 22.44 0.59 30.29 0.00 Z" />
<path fill="#ee2a59" opacity="1.00" d=" M 19.93 55.34 C 27.99 55.19 36.05 55.20 44.11 55.33 C 42.44 59.92 38.46 63.40 33.55 64.00 L 30.67 64.00 C 25.68 63.50 21.60 59.99 19.93 55.34 Z" />
</g>
</svg>
