<?xml version="1.0" encoding="UTF-8" ?>
<!DOCTYPE svg PUBLIC "-//W3C//DTD SVG 1.1//EN" "http://www.w3.org/Graphics/SVG/1.1/DTD/svg11.dtd">
<svg width="47pt" height="41pt" viewBox="0 0 47 41" version="1.1" xmlns="http://www.w3.org/2000/svg">
<g id="#aaaaaaff">
<path fill="#aaaaaa" opacity="1.00" d=" M 27.37 0.00 L 29.74 0.00 C 33.44 1.90 35.80 5.45 38.80 8.19 C 41.87 11.57 46.20 14.40 47.00 19.23 L 47.00 21.91 C 46.11 26.67 41.86 29.46 38.81 32.81 C 35.88 35.57 33.44 38.92 29.93 41.00 L 27.62 41.00 C 24.78 40.20 22.86 37.00 24.15 34.18 C 26.32 30.82 29.59 28.38 32.26 25.44 C 23.15 25.37 14.04 25.56 4.94 25.37 C 2.56 25.56 0.89 23.73 0.00 21.74 L 0.00 19.42 C 0.75 17.26 2.55 15.41 5.01 15.63 C 14.08 15.44 23.17 15.64 32.25 15.56 C 29.57 12.59 26.26 10.16 24.11 6.75 C 22.90 3.98 24.77 1.05 27.37 0.00 Z" />
</g>
</svg>
