<svg xmlns="http://www.w3.org/2000/svg" viewBox="0 0 21.59 22.5"><defs><style>.cls-1{fill:#58595b;}</style></defs><title>Asset 1</title><g id="Layer_2" data-name="Layer 2"><g id="Book-1a"><path class="cls-1" d="M13.36,19.66v.66a1,1,0,0,1-.88,1l-.17.6a.73.73,0,0,1-.71.55H10A.75.75,0,0,1,9.27,22l-.15-.6a1,1,0,0,1-.89-1v-.65A.64.64,0,0,1,8.86,19h3.87A.64.64,0,0,1,13.36,19.66Zm3-8.86a5.49,5.49,0,0,1-1.56,3.85,5.12,5.12,0,0,0-1.36,2.76.92.92,0,0,1-.91.77H9.07a.9.9,0,0,1-.9-.77A5.17,5.17,0,0,0,6.8,14.64a5.54,5.54,0,1,1,9.54-3.84ZM11.42,7.44a.62.62,0,0,0-.62-.62,4,4,0,0,0-4,4,.62.62,0,0,0,.62.62.63.63,0,0,0,.63-.62A2.75,2.75,0,0,1,10.8,8.07.63.63,0,0,0,11.42,7.44Zm-.62-4a.62.62,0,0,0,.62-.62V.63a.63.63,0,1,0-1.25,0V2.82A.63.63,0,0,0,10.8,3.44ZM3.44,10.79a.63.63,0,0,0-.63-.62H.63a.63.63,0,1,0,0,1.25H2.81A.63.63,0,0,0,3.44,10.79ZM21,10.17H18.78a.63.63,0,1,0,0,1.25H21a.63.63,0,0,0,0-1.25ZM4.71,16,3.16,17.55a.64.64,0,0,0,0,.89.63.63,0,0,0,.88,0l1.55-1.56A.62.62,0,1,0,4.71,16ZM16.44,5.78a.62.62,0,0,0,.44-.18l1.55-1.55a.63.63,0,1,0-.88-.89L16,4.71a.63.63,0,0,0,.44,1.07ZM4.71,5.59a.64.64,0,0,0,.44.18.62.62,0,0,0,.44-.18.61.61,0,0,0,0-.88L4,3.16A.62.62,0,0,0,3.16,4ZM16.88,16a.62.62,0,1,0-.88.88l1.55,1.56a.62.62,0,0,0,.44.18.63.63,0,0,0,.44-1.07Z"/></g></g></svg>