<?xml version="1.0" encoding="utf-8"?>
<!-- Generator: Adobe Illustrator 16.0.0, SVG Export Plug-In . SVG Version: 6.00 Build 0)  -->
<!DOCTYPE svg PUBLIC "-//W3C//DTD SVG 1.1//EN" "http://www.w3.org/Graphics/SVG/1.1/DTD/svg11.dtd">
<svg version="1.1" id="Layer_1" xmlns="http://www.w3.org/2000/svg" xmlns:xlink="http://www.w3.org/1999/xlink" x="0px" y="0px"
	 width="48.733px" height="39.605px" viewBox="0 0 48.733 39.605" enable-background="new 0 0 48.733 39.605" xml:space="preserve">
<path fill="#FFFFFF" d="M48.733,4.69c-1.793,0.798-3.719,1.333-5.742,1.574c2.065-1.233,3.653-3.2,4.396-5.529
	c-1.933,1.145-4.071,1.975-6.349,2.428C39.217,1.211,36.615,0,33.738,0c-5.517,0-9.997,4.479-9.997,10.001
	c0,0.781,0.088,1.539,0.261,2.277C15.69,11.861,8.325,7.884,3.396,1.83C2.533,3.31,2.041,5.023,2.041,6.857
	c0,3.468,1.764,6.527,4.445,8.325c-1.637-0.056-3.179-0.501-4.523-1.251c-0.004,0.04-0.004,0.085-0.004,0.125
	c0,4.847,3.447,8.885,8.02,9.799c-0.84,0.23-1.722,0.353-2.636,0.353c-0.642,0-1.269-0.062-1.88-0.179
	c1.274,3.976,4.963,6.866,9.342,6.946c-3.422,2.683-7.732,4.28-12.422,4.28c-0.803,0-1.602-0.053-2.383-0.143
	c4.426,2.837,9.678,4.492,15.325,4.492c18.391,0,28.448-15.241,28.448-28.448c0-0.435-0.01-0.868-0.032-1.299
	C45.702,8.459,47.394,6.695,48.733,4.69z"/>
</svg>
