<?xml version="1.0" encoding="UTF-8" ?>
<!DOCTYPE svg PUBLIC "-//W3C//DTD SVG 1.1//EN" "http://www.w3.org/Graphics/SVG/1.1/DTD/svg11.dtd">
<svg width="25pt" height="25pt" viewBox="0 0 25 25" version="1.1" xmlns="http://www.w3.org/2000/svg">
<g id="#ffffffff">
<path fill="#ffffff" opacity="1.00" d=" M 11.32 0.00 L 13.54 0.00 C 17.49 0.45 20.99 4.52 19.41 8.52 C 17.35 14.42 7.74 14.45 5.61 8.59 C 4.00 4.62 7.41 0.56 11.32 0.00 Z" />
<path fill="#ffffff" opacity="1.00" d=" M 0.01 17.91 C 1.66 15.39 4.19 13.92 7.09 13.30 C 10.44 15.38 14.57 15.36 17.92 13.30 C 20.79 13.94 23.39 15.38 25.00 17.91 L 25.00 18.67 C 22.48 22.25 18.45 24.45 14.14 25.00 L 11.00 25.00 C 6.65 24.54 2.58 22.34 0.00 18.78 L 0.00 16.62 L 0.01 17.91 Z" />
</g>
</svg>
