<svg xmlns="http://www.w3.org/2000/svg" viewBox="0 0 57.4 38.65"><defs><style>.cls-1{fill:#58595b;}</style></defs><title>booking fees</title><g id="Layer_2" data-name="Layer 2"><g id="Talent_Dashboard-v1" data-name="Talent Dashboard-v1"><path class="cls-1" d="M29.55,29.42V29.2c-1.14,0-2.24-.08-3.29-.16a15,15,0,0,1-2.39,4.09,39.61,39.61,0,0,0,5.75.5Z"/><path class="cls-1" d="M24.52,21.2A12.46,12.46,0,0,0,16,11.87a12.63,12.63,0,0,0-3.66-.55,12.38,12.38,0,1,0,8.34,21.53,12.33,12.33,0,0,0,4.05-9.16A13.06,13.06,0,0,0,24.52,21.2ZM12.38,22a4.69,4.69,0,0,1,1.27,9.2v1.1a1.25,1.25,0,0,1-2.49,0V31.25a4.73,4.73,0,0,1-3.48-4.54,1.25,1.25,0,0,1,2.49,0,2.21,2.21,0,1,0,2.2-2.21,4.69,4.69,0,0,1-1.19-9.22v-.53a1.24,1.24,0,1,1,2.48,0v.56a4.69,4.69,0,0,1,3.42,4.52,1.25,1.25,0,0,1-2.49,0A2.21,2.21,0,1,0,12.38,22Z"/><path class="cls-1" d="M29.51,26.7l-.07-4.4c-.77,0-1.53,0-2.25-.09q.06.75.06,1.47A15.85,15.85,0,0,1,27,26.59C27.79,26.66,28.64,26.7,29.51,26.7Z"/><path class="cls-1" d="M43.12,6.14a14.63,14.63,0,0,1-2.7,1.08A37.2,37.2,0,0,1,30.13,8.53a36.85,36.85,0,0,1-9.85-1.21,14.26,14.26,0,0,1-2.68-1l.08,3.5A14.25,14.25,0,0,1,21.57,12a.29.29,0,0,1,.1,0,36.08,36.08,0,0,0,8.46.93,35.05,35.05,0,0,0,9.57-1.21C42.4,10.92,43,10.06,43,9.9a.72.72,0,0,1,.13-.51V6.14Z"/><path class="cls-1" d="M39.69,1.21A34.72,34.72,0,0,0,30.12,0a33.53,33.53,0,0,0-9.44,1.21C18.06,2,17.49,2.78,17.47,3c0,0,0,0,0,0,.06.27.8,1.12,3.47,1.89a34.22,34.22,0,0,0,9.16,1.11,35.14,35.14,0,0,0,9.56-1.19C42.37,4.06,43,3.21,43,3S42.38,2,39.69,1.21Z"/><path class="cls-1" d="M57.38,35.58V31.86a15.64,15.64,0,0,1-2.61,1,36.5,36.5,0,0,1-10.26,1.31,38.36,38.36,0,0,1-9.33-1.07A16.44,16.44,0,0,1,32.08,32l.07,3.6v0c0,.19.54,1,3.16,1.83a33.81,33.81,0,0,0,9.43,1.18,33.32,33.32,0,0,0,9.46-1.21c2.62-.82,3.19-1.68,3.19-1.86Z"/><path class="cls-1" d="M43.09,13.07a15.13,15.13,0,0,1-2.68,1.07,36.92,36.92,0,0,1-10.3,1.3,44,44,0,0,1-5.63-.36,14.67,14.67,0,0,1,2.22,4.63c1.07.07,2.23.12,3.42.12h.13c2-2.24,7.51-3.35,12.84-3.5V13.07Z"/><path class="cls-1" d="M54.68,26a37.16,37.16,0,0,1-10.15,1.27,36.45,36.45,0,0,1-9.85-1.21,14.85,14.85,0,0,1-2.71-1L32,27.92v1c1,1.21,5.61,2.76,12.49,2.76a34.42,34.42,0,0,0,9.53-1.19c2.68-.82,3.27-1.67,3.27-1.84s.07-.29.07-.41h0V25A14.18,14.18,0,0,1,54.68,26Z"/><path class="cls-1" d="M54.1,20a34.42,34.42,0,0,0-9.57-1.18h-.21a34,34,0,0,0-8.86,1.05c-2.57.72-3.45,1.54-3.56,1.88a.11.11,0,0,0,0,.05l0,.05c.07.26.81,1.1,3.48,1.89a35,35,0,0,0,9.16,1.1A34.43,34.43,0,0,0,54,23.69c2.76-.82,3.38-1.67,3.39-1.86h0C57.37,21.63,56.75,20.81,54.1,20Z"/></g></g></svg>