<svg xmlns="http://www.w3.org/2000/svg" viewBox="0 0 40.63 48.62"><defs><style>.cls-1{fill:#58595b;}</style></defs><title>get support</title><g id="Layer_2" data-name="Layer 2"><g id="Talent_Dashboard-v1" data-name="Talent Dashboard-v1"><path class="cls-1" d="M24.67,3.37V16.76a7.5,7.5,0,0,1-4.35,13.53,12.71,12.71,0,0,1-3.38,4.23,13.87,13.87,0,0,1-4.71,2.55,1.42,1.42,0,1,1-.75-2.74,11.62,11.62,0,0,0,3.73-2.08,9.8,9.8,0,0,0,2.18-2.52,7.49,7.49,0,0,1-1.64-13V4.16C7.63,7.07,3.15,13,4.29,23.31L1.35,28.25c-1,1.61-2.07,4.24-.67,5.51,1,.87,2.07.58,3,.87a21.08,21.08,0,0,0,2.82,7.65,4.47,4.47,0,0,0,4.42,2.19l2.8-.35.54,3.3a1.41,1.41,0,0,0,1.63,1.17l15,0a1.42,1.42,0,0,0,1.38-1.76c0-.06-1.24-5.53,2.45-13a36.71,36.71,0,0,1,2.6-4.33C39,27,40.62,24.3,40.63,21.33,40.65,12.27,33.45,4.76,24.67,3.37Z"/><path class="cls-1" d="M24.86,22.79a4.65,4.65,0,1,0-6.4,4.31,11.41,11.41,0,0,0,.33-2.79,1.43,1.43,0,1,1,2.85,0,13.94,13.94,0,0,1-.31,3A4.65,4.65,0,0,0,24.86,22.79Z"/><path class="cls-1" d="M18.6,1.43v14a7.49,7.49,0,0,1,3.23,0v-14A1.43,1.43,0,0,0,20.4,0H20A1.43,1.43,0,0,0,18.6,1.43Z"/></g></g></svg>