<svg xmlns="http://www.w3.org/2000/svg" viewBox="0 0 17.98 27.89"><defs><style>.cls-1{fill:#58595b;}</style></defs><title>pars equality center</title><g id="Layer_2" data-name="Layer 2"><g id="Talent_Dashboard-v1" data-name="Talent Dashboard-v1"><path class="cls-1" d="M10.09,14l3.29,3.68.57-.61c1.81-2,3.24-3.58,3.79-5.85A9.15,9.15,0,0,0,9.14,0,9,9,0,0,0,0,9.05c0,4.43,1.6,5.27,13.5,18.56a.82.82,0,0,0,.58.28h0a.82.82,0,0,0,.57-.24L17,25.33a.82.82,0,0,0,0-1.13C9.14,15.37,6,11.84,5.84,11.61a4,4,0,0,1-.68-4A4.13,4.13,0,0,1,9,4.91a4.14,4.14,0,0,1,4.09,4.14,4,4,0,0,1-.93,2.56c-.23.33-.86,1-2.06,2.39Z"/><path class="cls-1" d="M1,25.33,3.3,27.65a.83.83,0,0,0,.58.24h0a.81.81,0,0,0,.58-.28C5.71,26.24,6.85,25,7.89,23.84L4.56,20.17,1,24.2a.82.82,0,0,0,0,1.13Z"/></g></g></svg>