<svg xmlns="http://www.w3.org/2000/svg" viewBox="0 0 48.55 48.78"><defs><style>.cls-1{fill:#58595b;}</style></defs><title>record greeting</title><g id="Layer_2" data-name="Layer 2"><g id="Talent_Dashboard-v1" data-name="Talent Dashboard-v1"><path class="cls-1" d="M31.34,9v2.11h3.47V4.53a4.31,4.31,0,0,0-4.3-4.3v2a4.85,4.85,0,0,1-4.85,4.85H16a4.85,4.85,0,0,1-4.85-4.85v-2a4.31,4.31,0,0,0-4.3,4.3V21.37h2a4.73,4.73,0,0,1,1.8.35V9Z"/><path class="cls-1" d="M14,18.57c0,.45.28,3.84,1.58,4.63.08-.19.75-4.16,7.32-6.56,3.16-1.15,2.79,6.56,2.79,6.56,1-.46,1.38-2.7,1.52-4a10,10,0,0,1-2.6-6.1,7.82,7.82,0,0,0-4.23-1C16.19,12.26,13.78,14.55,14,18.57Z"/><path class="cls-1" d="M16,4h9.7a2,2,0,0,0,2-2V0H14V2a2,2,0,0,0,2,2Z"/><path class="cls-1" d="M34.52,22.5A9.87,9.87,0,0,1,31.34,22V38.22l-3.25-6.68A2.27,2.27,0,0,0,27,30.46l-2.9-1.62L23,27.52l-2.36,2.64-2.3-2.66L17,28.89l-2.8,1.58a2.24,2.24,0,0,0-.84.76,4.9,4.9,0,0,1,.36,1.84,4.85,4.85,0,0,1-2.48,4.23,5.22,5.22,0,0,1,.45.92,4.8,4.8,0,0,1,.32,1.7,4.85,4.85,0,0,1-4.85,4.85H6.83a4.31,4.31,0,0,0,4.29,4H30.51a4.31,4.31,0,0,0,4.3-4.3v-22Zm-10.24,22H17.42a1.42,1.42,0,0,1,0-2.84h6.86a1.42,1.42,0,1,1,0,2.84Z"/><path class="cls-1" d="M9.15,39.7a2,2,0,1,0-2,2A2,2,0,0,0,9.15,39.7Z"/><path class="cls-1" d="M4,21.14v-4H2a2,2,0,0,0,0,4Z"/><path class="cls-1" d="M8.86,28a2,2,0,0,0,0-4H3.72a2,2,0,1,0,0,4Z"/><path class="cls-1" d="M8.86,34.85a2,2,0,0,0,0-4H5.43a2,2,0,0,0,0,4Z"/><path class="cls-1" d="M47.13,22.59H43.89V18.37a4.66,4.66,0,0,0-4.67-4.66H27.55a7.16,7.16,0,0,0,7,5.72h1.71a1.42,1.42,0,0,1,1.42,1.42V41.7h1.53A4.67,4.67,0,0,0,43.89,37h3.24a1.42,1.42,0,0,0,1.42-1.43V24A1.41,1.41,0,0,0,47.13,22.59Z"/></g></g></svg>