<svg xmlns="http://www.w3.org/2000/svg" viewBox="0 0 49.58 49.52"><defs><style>.cls-1{fill:#58595b;}</style></defs><title>vacation mode</title><g id="Layer_2" data-name="Layer 2"><g id="Talent_Dashboard-v1" data-name="Talent Dashboard-v1"><path class="cls-1" d="M17.71,26.23l3.59-1.89-3.59-1.89L19.88,19l-4.06.16L16,15.12l-3.44,2.16-1.89-3.59L8.76,17.28,5.33,15.12l.15,4.06L1.43,19l2.16,3.43L0,24.34l3.59,1.89L1.43,29.67l4.05-.16-.15,4.06L8.76,31.4,10.65,35l1.89-3.59L16,33.57l-.16-4.06,4.06.16Zm-7.06,3.44A5.33,5.33,0,1,1,16,24.34,5.33,5.33,0,0,1,10.65,29.67Z"/><path class="cls-1" d="M44.61,45.42a5.16,5.16,0,0,1-6.59,0,8.08,8.08,0,0,0-9.94,0,5.16,5.16,0,0,1-6.59,0,7.79,7.79,0,0,0-5-1.71,7.79,7.79,0,0,0-5,1.71,4.89,4.89,0,0,1-3.3,1.19A4.88,4.88,0,0,1,5,45.42a7.82,7.82,0,0,0-5-1.71v2.9A4.89,4.89,0,0,1,3.3,47.8a7.76,7.76,0,0,0,5,1.72,7.79,7.79,0,0,0,5-1.72,4.88,4.88,0,0,1,3.29-1.19,4.89,4.89,0,0,1,3.3,1.19,8,8,0,0,0,9.93,0,5.17,5.17,0,0,1,6.6,0,8,8,0,0,0,9.93,0,4.89,4.89,0,0,1,3.3-1.19v-2.9A7.79,7.79,0,0,0,44.61,45.42Z"/><path class="cls-1" d="M48.08,10.58a15.84,15.84,0,0,0-7.68-7.7L41.09,1,38.36,0l-.69,1.88a16,16,0,0,0-19.09,10L18,13.47l1.68.32a24.58,24.58,0,0,1,7.74,2.82l.34.19h.54a15.34,15.34,0,0,1,3.77.48L25.3,35.87h-.51a40.05,40.05,0,0,0-13.1,2.18,39.64,39.64,0,0,0-7.58,3.54,12.87,12.87,0,0,1,2.53,1.46c.85.59.93.66,1.62.66s.78-.07,1.63-.66a10.64,10.64,0,0,1,6.63-2.25,10.65,10.65,0,0,1,6.64,2.25c.85.59.94.66,1.63.66s.77-.07,1.62-.66a10.92,10.92,0,0,1,13.28,0c.85.59.94.66,1.62.66s.78-.07,1.63-.66a12.58,12.58,0,0,1,2.53-1.46,39.92,39.92,0,0,0-7.58-3.54,39.47,39.47,0,0,0-9.55-2L34.8,18.27a14.79,14.79,0,0,1,3.31,2.15l.3.25.38.07a25.17,25.17,0,0,1,7.74,2.82l1.49.85.59-1.62A15.87,15.87,0,0,0,48.08,10.58Z"/></g></g></svg>