<svg xmlns="http://www.w3.org/2000/svg" viewBox="0 0 25.4 23.64"><defs><style>.cls-1{fill:#58595b;}</style></defs><title>Asset 4</title><g id="Layer_2" data-name="Layer 2"><g id="Book-2a"><path class="cls-1" d="M16.18,3.47a3.38,3.38,0,0,1,2.09.33A2.11,2.11,0,0,0,19.64,4a2.06,2.06,0,0,0,1.24-.61A.69.69,0,0,0,21,3.3L19.94,0,13.19,1.59l.48,3.23a2.81,2.81,0,0,0,.61-.43,3.39,3.39,0,0,1,1.9-.92Z"/><path class="cls-1" d="M5.4,4a2.1,2.1,0,0,0,1.22.67A2.12,2.12,0,0,0,8,4.47a3.56,3.56,0,0,1,4,.77,2.8,2.8,0,0,0,.59.45l.62-3.2L6.5.61,5.28,3.86,5.4,4Z"/><path class="cls-1" d="M9.59,13.84a4.19,4.19,0,0,0,1.93-2.79l.77-4a3.74,3.74,0,0,1-1.23-.82,2,2,0,0,0-1.21-.67,2.1,2.1,0,0,0-1.38.17,3.41,3.41,0,0,1-2.1.23,3.23,3.23,0,0,1-1.59-.75L3.44,8.77a4.21,4.21,0,0,0,2.8,5.54,4.2,4.2,0,0,0,3.35-.47ZM10,9.41h1.31V10.7H10ZM5.77,12.8,6,11.53l1.29.25-.24,1.27Z"/><path class="cls-1" d="M21.91,20.63l-1.38-5.84a5.79,5.79,0,0,1-.63.18l-.45.09-.19,0,1.37,5.84-3.28.77.3,1.28,7.75-1.82-.3-1.28Z"/><path class="cls-1" d="M22.31,11.66a4.18,4.18,0,0,0,.33-3.37L21.45,4.64a3.18,3.18,0,0,1-1.62.68A3.41,3.41,0,0,1,17.74,5a2.25,2.25,0,0,0-2.61.39,3.64,3.64,0,0,1-1.26.76l.6,4.06A4.22,4.22,0,0,0,19.6,13.7a4.19,4.19,0,0,0,2.71-2ZM19.84,8.51l1.3-.19.18,1.27L20,9.79Zm-.67,3.85-1.29.19-.2-1.31,1.3-.19Z"/><path class="cls-1" d="M6.52,15.71l-.19,0-.45-.11a4.57,4.57,0,0,1-.62-.22L3.63,21.14.36,20.22,0,21.48l7.66,2.16L8,22.38,4.89,21.5Z"/></g></g></svg>