<svg xmlns="http://www.w3.org/2000/svg" viewBox="0 0 24.39 23.76"><defs><style>.cls-1{fill:#58595b;}</style></defs><title>Asset 10</title><g id="Layer_2" data-name="Layer 2"><g id="Book-2a"><path class="cls-1" d="M9.91,13.08H9a3.19,3.19,0,0,0-2.79,1.65H0v9H13.11a3.3,3.3,0,0,0,3.3-3.3V16.39a3.31,3.31,0,0,0-3.3-3.31H11.46m3.4,3.31v4.07a1.75,1.75,0,0,1-1.75,1.75H4.85V16.28H7.3l.17-.53A1.65,1.65,0,0,1,9,14.63h4.08a1.76,1.76,0,0,1,1.75,1.76ZM3.3,22.21H1.55V16.28H3.3Z"/><path class="cls-1" d="M18,5.31a1,1,0,1,0,1,1.05A1,1,0,0,0,18,5.31Z"/><path class="cls-1" d="M22.59,8.15h0a1.79,1.79,0,0,0,0-3.58h0a.1.1,0,0,1-.07-.17h0A1.79,1.79,0,0,0,20,1.86h0a.1.1,0,0,1-.17-.07h0a1.79,1.79,0,0,0-3.58,0h0a.1.1,0,0,1-.17.07h0A1.79,1.79,0,1,0,13.53,4.4h0a.1.1,0,0,1-.07.17h0a1.79,1.79,0,0,0,0,3.58h0a.1.1,0,0,1,.07.17h0a1.79,1.79,0,1,0,2.53,2.53h0a.1.1,0,0,1,.17.07h0a1.79,1.79,0,1,0,3.58,0h0a.1.1,0,0,1,.17-.07h0a1.79,1.79,0,1,0,2.53-2.53h0A.1.1,0,0,1,22.59,8.15ZM18,9a2.6,2.6,0,1,1,2.6-2.59A2.6,2.6,0,0,1,18,9Z"/><path class="cls-1" d="M10.29,10.35a3.16,3.16,0,0,0-.09.76v2.16h1.55V11.11a1.92,1.92,0,0,1,.74-1.52,3.49,3.49,0,0,1,0-1.07,3,3,0,0,1-.5-.45,3.54,3.54,0,0,0-1.22,1.15l-1-1a3.28,3.28,0,0,0-4.65,0l-.26.25L6.25,9.87a3.3,3.3,0,0,0,4,.48Z"/></g></g></svg>