<svg xmlns="http://www.w3.org/2000/svg" viewBox="0 0 21.2 25.9"><defs><style>.cls-1{fill:#58595b;}</style></defs><title>Asset 1</title><g id="Layer_2" data-name="Layer 2"><g id="Book-2a"><path class="cls-1" d="M10.6,7.07a2.37,2.37,0,0,0,2-3.57L10.6,0l-2,3.5a2.35,2.35,0,0,0,2,3.57Z"/><path class="cls-1" d="M17.66,10.6H11.77V8.24H9.42V10.6H3.53A3.53,3.53,0,0,0,0,14.13v1.81a2.31,2.31,0,0,0,2.31,2.31,2.28,2.28,0,0,0,1.63-.68l2.52-2.51L9,17.57a2.36,2.36,0,0,0,3.26,0l2.52-2.51,2.52,2.51a2.26,2.26,0,0,0,1.63.68,2.31,2.31,0,0,0,2.3-2.31V14.13A3.54,3.54,0,0,0,17.66,10.6Z"/><path class="cls-1" d="M16,18.82h0l-1.27-1.26-1.27,1.26a4.17,4.17,0,0,1-5.76,0L6.45,17.56,5.18,18.82A4,4,0,0,1,0,19.29v5.44A1.18,1.18,0,0,0,1.18,25.9H20a1.18,1.18,0,0,0,1.17-1.17V19.29a4,4,0,0,1-2.3.73A4,4,0,0,1,16,18.82Z"/></g></g></svg>