<svg xmlns="http://www.w3.org/2000/svg" viewBox="0 0 27.99 26.58"><defs><style>.cls-1{fill:#58595b;}</style></defs><title>Asset 18</title><g id="Layer_2" data-name="Layer 2"><g id="Book-2a"><path class="cls-1" d="M21.05,12.51A2,2,0,0,1,20.7,11l.19-1.1-.8-.77,0,0C14,14.15,13.27,22.3,13.34,26.3a.29.29,0,0,0,.26.28.3.3,0,0,0,.31-.23C15.59,18.17,18.76,14.3,21.05,12.51Z"/><path class="cls-1" d="M9.1,7.05l-1.83.41L6.56,9.21a.36.36,0,0,1,0,.09c2.87,4.06,4.36,12.34,5,16.52a.2.2,0,0,0,.2.16.19.19,0,0,0,.18-.19c.07-9-1.31-15-2.7-18.76Z"/><path class="cls-1" d="M21.67,21.62l-.26-.36a2,2,0,0,1-.37-1,8,8,0,0,0-6,5.36.4.4,0,0,0,.71.33,8.81,8.81,0,0,1,5.76-3.95h0Z"/><path class="cls-1" d="M7.34,18.13a2.05,2.05,0,0,1-.72.62l-.4.21,0,.44a2.34,2.34,0,0,1-.09.38,22.62,22.62,0,0,1,3.68,6.39.27.27,0,0,0,.32.16.26.26,0,0,0,.18-.3A18.58,18.58,0,0,0,7.34,18.13Z"/><path class="cls-1" d="M22.85,9.25l-.35,2a.21.21,0,0,0,.08.21.22.22,0,0,0,.13,0l.1,0,1.83-1,1.84,1,.1,0a.17.17,0,0,0,.12,0,.22.22,0,0,0,.09-.21l-.35-2L27.92,7.8A.22.22,0,0,0,28,7.58a.23.23,0,0,0-.18-.15l-2.05-.29-.91-1.86a.24.24,0,0,0-.2-.12.22.22,0,0,0-.19.12l-.92,1.86-2.05.29a.2.2,0,0,0-.17.15.2.2,0,0,0,.05.22Z"/><path class="cls-1" d="M8.71,5.27a.22.22,0,0,0,.16-.16.22.22,0,0,0-.07-.22L6.62,3.07,6.88.24A.23.23,0,0,0,6.78,0a.2.2,0,0,0-.11,0L6.55,0,4.15,1.54,1.54.41H1.45a.19.19,0,0,0-.14,0,.22.22,0,0,0-.07.22l.69,2.75L.05,5.55a.22.22,0,0,0,0,.23.22.22,0,0,0,.18.14L3,6.11,4.49,8.55a.19.19,0,0,0,.18.11h0a.23.23,0,0,0,.18-.13L5.93,5.89Z"/><path class="cls-1" d="M27.56,20.77a.25.25,0,0,0-.15-.18l-1.33-.43-.4-1.34a.25.25,0,0,0-.17-.16h0a.23.23,0,0,0-.18.09l-.82,1.14-1.4,0h0a.21.21,0,0,0-.19.12.22.22,0,0,0,0,.22l.82,1.14-.46,1.32a.2.2,0,0,0,.05.22.21.21,0,0,0,.15.07h.07l1.33-.44,1.11.85a.24.24,0,0,0,.13.05l.1,0a.24.24,0,0,0,.12-.2v-1.4L27.46,21A.23.23,0,0,0,27.56,20.77Z"/><path class="cls-1" d="M5.78,17.14a.23.23,0,0,0,.11-.2.21.21,0,0,0-.12-.19l-1.27-.6-.23-1.38a.23.23,0,0,0-.15-.17H4.05a.19.19,0,0,0-.15.07l-1,1-1.39-.2h0a.22.22,0,0,0-.18.1.23.23,0,0,0,0,.23L2,17l-.63,1.25a.26.26,0,0,0,0,.23.23.23,0,0,0,.18.09h0L3,18.32l1,1a.25.25,0,0,0,.16.06h.07a.22.22,0,0,0,.14-.18l.17-1.39Z"/><path class="cls-1" d="M15,5.41,14.8,5l-.43-.1a2.08,2.08,0,0,1-.86-.41c-.7,1.86-1.18,4.73-.67,9a.2.2,0,0,0,.39,0,23.87,23.87,0,0,1,1.93-7.78A1.86,1.86,0,0,1,15,5.41Z"/><path class="cls-1" d="M15.59.44l.14,1.4-1.07.9a.22.22,0,0,0,.1.38l1.37.3.53,1.29a.22.22,0,0,0,.18.14h0a.21.21,0,0,0,.19-.11l.7-1.21,1.4-.11a.21.21,0,0,0,.18-.13.22.22,0,0,0,0-.23l-.93-1L18.69.66a.22.22,0,0,0-.07-.22.24.24,0,0,0-.14,0l-.09,0L17.11,1,15.92.24a.27.27,0,0,0-.12,0,.23.23,0,0,0-.11,0A.2.2,0,0,0,15.59.44Z"/></g></g></svg>