<svg xmlns="http://www.w3.org/2000/svg" viewBox="0 0 22.09 29"><defs><style>.cls-1{fill:#58595b;}</style></defs><title>Asset 12</title><g id="Layer_2" data-name="Layer 2"><g id="Book-2a"><path class="cls-1" d="M7.65,15.12A.85.85,0,1,1,6.8,16,.85.85,0,0,1,7.65,15.12Z"/><path class="cls-1" d="M14.44,15.12a.85.85,0,1,1-.84.85A.85.85,0,0,1,14.44,15.12Z"/><path class="cls-1" d="M14.05,22.4a.85.85,0,0,0-1.2,0,2.54,2.54,0,0,1-3.53.07.85.85,0,0,0-1.16,1.25,4.23,4.23,0,0,0,2.89,1.13,4.19,4.19,0,0,0,3-1.25A.85.85,0,0,0,14.05,22.4Z"/><path class="cls-1" d="M22.09,9.4a4.27,4.27,0,0,0-2.54-3.89A9.32,9.32,0,0,0,2,6.91,2.54,2.54,0,0,0,0,9.4v1.7a2.54,2.54,0,0,0,.71,1.76A12.59,12.59,0,0,0,0,17.05c0,6.59,5,12,11.05,12s11-5.36,11-11.95a12.64,12.64,0,0,0-1-4.92A4.23,4.23,0,0,0,22.09,9.4Zm-11-7.7a7.63,7.63,0,0,1,6.38,3.48A4.26,4.26,0,0,0,14.6,6.66L13.35,5.4a.85.85,0,0,0-1.2,1.21l.24.25H3.83A7.69,7.69,0,0,1,11.05,1.7Zm5.88,12a6.07,6.07,0,0,1,.06.85,6,6,0,0,1-1.51,4,7.55,7.55,0,0,0-2.54-1.18.85.85,0,0,0-.69.12.86.86,0,0,0-.36.6.85.85,0,0,1-.84.74A.86.86,0,0,1,10.2,18a.86.86,0,0,0-.36-.6.84.84,0,0,0-.69-.12,7.55,7.55,0,0,0-2.54,1.18,6,6,0,0,1-1.51-4,6.07,6.07,0,0,1,.06-.85ZM1.7,9.4a.86.86,0,0,1,.85-.85H13.68a4.71,4.71,0,0,0-.08.85A4.2,4.2,0,0,0,14.45,12H2.55a.85.85,0,0,1-.85-.85Zm9.35,17.9c-5.16,0-9.35-4.59-9.35-10.25a10.88,10.88,0,0,1,.54-3.42,1.56,1.56,0,0,0,.31,0h.9a8.08,8.08,0,0,0-.05.85A7.63,7.63,0,0,0,6,20.24a.85.85,0,0,0,1.12,0,6.18,6.18,0,0,1,1.73-1.07,2.54,2.54,0,0,0,4.41,0A6.18,6.18,0,0,1,15,20.24a.85.85,0,0,0,1.12,0,7.63,7.63,0,0,0,2.59-5.74c0-.31,0-.61-.05-.92h0a4.26,4.26,0,0,0,1.06-.35,11,11,0,0,1,.68,3.83C20.39,22.71,16.2,27.3,11.05,27.3ZM17.84,12A2.55,2.55,0,1,1,20.39,9.4,2.56,2.56,0,0,1,17.84,12Z"/></g></g></svg>