<svg xmlns="http://www.w3.org/2000/svg" viewBox="0 0 14.75 22.77"><defs><style>.cls-1{fill:#58595b;}</style></defs><title>Asset 8</title><g id="Layer_2" data-name="Layer 2"><g id="Book-2a"><path class="cls-1" d="M4.82,6.93a4.21,4.21,0,0,1-.35-4.36,3.48,3.48,0,0,1,6.22,0,4.23,4.23,0,0,1-.35,4.36L8.4,9.61l2.07,2.84,2.44-4h0A5.62,5.62,0,0,0,8,0H7.13a5.62,5.62,0,0,0-4.9,8.39l8.68,14.38,3.84-2.16Z"/><path class="cls-1" d="M7.58,4A3,3,0,0,1,9.75,5a2.92,2.92,0,0,0-.26-1.78,2.14,2.14,0,0,0-3.83,0A2.94,2.94,0,0,0,5.4,5,3,3,0,0,1,7.58,4Z"/><path class="cls-1" d="M4.41,14.63,0,20.38l4.24,2.39L6.8,18.54Z"/></g></g></svg>