<svg xmlns="http://www.w3.org/2000/svg" viewBox="0 0 23.4 21.71"><defs><style>.cls-1{fill:#58595b;}.cls-2{fill:#333;}</style></defs><title>Asset 16</title><g id="Layer_2" data-name="Layer 2"><g id="Book-2a"><path class="cls-1" d="M17.91,2.88V.69A.68.68,0,0,0,17.23,0a.69.69,0,0,0-.69.69V2.88a.68.68,0,0,0,.69.68A.67.67,0,0,0,17.91,2.88Z"/><path class="cls-1" d="M19.26,4.14a.69.69,0,0,0,.48.2.71.71,0,0,0,.49-.2l1.64-1.65a.67.67,0,0,0,0-1,.68.68,0,0,0-1,0L19.26,3.17A.68.68,0,0,0,19.26,4.14Z"/><path class="cls-1" d="M19.83,6.17a.69.69,0,0,0,.69.69h2.19a.69.69,0,1,0,0-1.38H20.52A.69.69,0,0,0,19.83,6.17Z"/><path class="cls-1" d="M13.2,4a2.82,2.82,0,0,1,1.27-.66l-.06-.07A2.07,2.07,0,0,0,11.94,3a2.08,2.08,0,0,0-.42-.61,2,2,0,0,0-2.88,0L5.48,5.51V5.19A2.06,2.06,0,0,0,2,3.73a2.09,2.09,0,0,0-.6,1.46v.75a3.84,3.84,0,0,1,.69-.07A3.45,3.45,0,0,1,5.12,7.75L9,3.91a2.93,2.93,0,0,1,4.13,0Z"/><path class="cls-2" d="M12.84,15.44a.28.28,0,0,1-.17-.07.25.25,0,0,1,0-.36l6.1-6.13a1.55,1.55,0,0,0-.36-1.57,1.4,1.4,0,0,0-1.72-.11l-5.94,6a.23.23,0,0,1-.17.07.24.24,0,0,1-.18-.07.25.25,0,0,1,0-.36l5.93-6a1.42,1.42,0,0,0-.1-1.72,1.54,1.54,0,0,0-2.19,0l-1.2,1.22s0,0,0,.06L8.27,11a.25.25,0,0,1-.18.08A.25.25,0,0,1,7.92,11a.24.24,0,0,1,0-.35l4.54-4.62a1.29,1.29,0,0,0-.35-1.18,1.56,1.56,0,0,0-2.19,0L6.65,8.16,4.11,10.7V9.3A2.06,2.06,0,1,0,0,9.3v4.41a2.5,2.5,0,0,0,.74,1.78l4.94,5a4.35,4.35,0,0,0,6.14,0l3.56-3.56,3.27-3.27a1.55,1.55,0,0,0,0-2.18A1.5,1.5,0,0,0,17.34,11L13,15.36A.25.25,0,0,1,12.84,15.44Z"/></g></g></svg>