<svg xmlns="http://www.w3.org/2000/svg" viewBox="0 0 19.82 26.04"><defs><style>.cls-1{fill:#58595b;}</style></defs><title>Asset 23</title><g id="Layer_2" data-name="Layer 2"><g id="Book-2a"><path class="cls-1" d="M3.79,9.88,6.52,8.52a.74.74,0,0,1,.68,0L9.91,9.88l2.71-1.36a.74.74,0,0,1,.68,0L16,9.88,18.8,8.63a19.51,19.51,0,0,0-1.07-2.48H2.09A19.51,19.51,0,0,0,1,8.63Z"/><path class="cls-1" d="M3.81,16l2.71-1.35a.74.74,0,0,1,.68,0L9.91,16l2.71-1.35a.74.74,0,0,1,.68,0L16,16l3.81-1.9a18,18,0,0,0-.57-4l-2.92,1.32a.76.76,0,0,1-.66,0L13,10.05l-2.71,1.36a.74.74,0,0,1-.68,0L6.86,10.05,4.15,11.41a.76.76,0,0,1-.66,0L.57,10.1a18,18,0,0,0-.57,4ZM16,13.06a.78.78,0,0,1,.77.77.77.77,0,0,1-.77.76.76.76,0,0,1-.76-.76A.77.77,0,0,1,16,13.06ZM13,11.54a.76.76,0,1,1-.76.76A.76.76,0,0,1,13,11.54ZM9.91,13a.77.77,0,0,1,.76.77.76.76,0,1,1-1.52,0A.77.77,0,0,1,9.91,13Zm-3-1.47a.76.76,0,1,1-.76.76A.76.76,0,0,1,6.86,11.54ZM3.81,13.06a.77.77,0,0,1,.76.77.76.76,0,0,1-.76.76A.77.77,0,0,1,3,13.83.78.78,0,0,1,3.81,13.06Z"/><path class="cls-1" d="M1.72,21.4a9.55,9.55,0,0,0,16.38,0Z"/><path class="cls-1" d="M16.82,4.63C14.86,1.69,12.35,0,9.91,0S5,1.69,3,4.63Z"/><path class="cls-1" d="M18.86,19.88a13.46,13.46,0,0,0,.92-4.08c-3.6,1.76-3.45,1.79-3.77,1.79s-.24-.06-3.05-1.44l-2.71,1.36a.74.74,0,0,1-.68,0L6.86,16.15,4.15,17.51a.74.74,0,0,1-.68,0L0,15.8A13.46,13.46,0,0,0,1,19.88Z"/></g></g></svg>