<svg xmlns="http://www.w3.org/2000/svg" viewBox="0 0 26.45 23.13"><defs><style>.cls-1{fill:#58595b;}</style></defs><title>Asset 9</title><g id="Layer_2" data-name="Layer 2"><g id="Book-2a"><path class="cls-1" d="M14,.78a.78.78,0,1,0-1.55,0V4.1A.78.78,0,0,0,14,4.1Z"/><path class="cls-1" d="M9.36,5.47a.76.76,0,0,0,1.09,0,.76.76,0,0,0,0-1.09L8.79,2.72A.77.77,0,1,0,7.7,3.81Z"/><path class="cls-1" d="M16.55,5.7a.72.72,0,0,0,.54-.23l1.67-1.66a.77.77,0,0,0,0-1.09.78.78,0,0,0-1.1,0L16,4.38a.77.77,0,0,0,0,1.09A.74.74,0,0,0,16.55,5.7Z"/><path class="cls-1" d="M11,7.49l0,0L7.61,10.38a1.7,1.7,0,0,1-1.12.41H4.09A4.09,4.09,0,0,0,0,14.89v7.47a.77.77,0,0,0,.77.77H7.42a.77.77,0,0,0,.77-.77V15.24l3.94-3.38a.87.87,0,0,0,.32-.69v-3A.9.9,0,0,0,11,7.49Z"/><path class="cls-1" d="M22.36,10.79H20a1.7,1.7,0,0,1-1.12-.41L15.49,7.51l0,0A.9.9,0,0,0,14,8.2v3a.9.9,0,0,0,.32.69l3.94,3.38v7.12a.77.77,0,0,0,.78.77h6.64a.76.76,0,0,0,.77-.77V14.89A4.09,4.09,0,0,0,22.36,10.79Z"/><path class="cls-1" d="M7.36,7.53A3.27,3.27,0,1,0,4.1,10.79,3.27,3.27,0,0,0,7.36,7.53Z"/><path class="cls-1" d="M25.62,7.53a3.27,3.27,0,1,0-3.26,3.26A3.27,3.27,0,0,0,25.62,7.53Z"/></g></g></svg>