<svg xmlns="http://www.w3.org/2000/svg" viewBox="0 0 16.15 27.15"><defs><style>.cls-1{fill:#58595b;}</style></defs><title>Asset 22</title><g id="Layer_2" data-name="Layer 2"><g id="Book-2a"><path class="cls-1" d="M16,8.86V5.31a.86.86,0,0,0-.86-.88.88.88,0,0,0-.89.88V8.86A6.21,6.21,0,0,1,8.94,15V13.19a4.43,4.43,0,0,0,3.54-4.33V5.31a.87.87,0,0,0-.87-.88.88.88,0,0,0-.88.88V8.86a2.67,2.67,0,0,1-1.79,2.49v-6a.88.88,0,1,0-1.75,0v6A2.67,2.67,0,0,1,5.4,8.86V5.31a.88.88,0,1,0-1.75,0V8.86a4.43,4.43,0,0,0,3.54,4.33V15A6.2,6.2,0,0,1,1.87,8.86V5.31A.87.87,0,0,0,1,4.43a.88.88,0,0,0-.89.88V8.86a8,8,0,0,0,7.09,7.91v5.07H6.3a4.44,4.44,0,0,0-4.43,4.43.88.88,0,0,0,.89.88H13.38a.88.88,0,0,0,.89-.88,4.44,4.44,0,0,0-4.43-4.43h-.9V16.77A8,8,0,0,0,16,8.86Z"/><path class="cls-1" d="M9,1.77,8.07,0,7.19,1.77a1,1,0,0,0,0,.89,1,1,0,0,0,1.32.44A1,1,0,0,0,9,1.77Z"/><path class="cls-1" d="M12.5,1.77,11.61,0l-.88,1.77a1,1,0,1,0,1.77,0Z"/><path class="cls-1" d="M16,1.77,15.16,0l-.89,1.77a1,1,0,0,0,0,.89A1,1,0,1,0,16,1.77Z"/><path class="cls-1" d="M5.42,1.77,4.53,0,3.65,1.77a1,1,0,0,0,0,.89A1,1,0,0,0,5,3.1,1,1,0,0,0,5.42,1.77Z"/><path class="cls-1" d="M1.87,1.77,1,0,.1,1.77a1,1,0,0,0,0,.89,1,1,0,0,0,1.33.44A1,1,0,0,0,1.87,1.77Z"/></g></g></svg>