<svg xmlns="http://www.w3.org/2000/svg" viewBox="0 0 23.06 20.27"><defs><style>.cls-1{fill:#333;}.cls-2{fill:#58595b;}</style></defs><title>Asset 9</title><g id="Layer_2" data-name="Layer 2"><g id="Book-2a"><path class="cls-1" d="M21.34,2a6,6,0,0,0-9.54.67,4.68,4.68,0,0,0-.27.4,4.68,4.68,0,0,0-.27-.4A6,6,0,0,0,6.29,0,6,6,0,0,0,1.72,2,7,7,0,0,0,0,6.74a8.54,8.54,0,0,0,2.36,5.63A51.63,51.63,0,0,0,8.13,17.7c.87.73,1.76,1.49,2.71,2.31a1,1,0,0,0,1.38,0c.95-.82,1.85-1.58,2.71-2.31,1.5-1.26,2.8-2.36,3.92-3.42,2.19-2.06,4.21-4.4,4.21-7.54A7,7,0,0,0,21.34,2ZM17.5,13.52c-.91.86-2,1.75-3.2,2.79l-2.21,1.88a.85.85,0,0,1-1.12,0L8.76,16.31A42,42,0,0,1,4.05,12,7,7,0,0,1,2.12,7.37,5.73,5.73,0,0,1,3.53,3.53,4.93,4.93,0,0,1,7.26,1.87a4.86,4.86,0,0,1,4.05,2.21l.22.32.22-.32A4.86,4.86,0,0,1,15.8,1.87a4.93,4.93,0,0,1,3.73,1.66,5.73,5.73,0,0,1,1.41,3.84C20.94,9.92,19.29,11.84,17.5,13.52Z"/><path class="cls-2" d="M9.17,15.92l1.88,1.6a.73.73,0,0,0,1,0l1.88-1.6c1-.88,1.95-1.64,2.73-2.38,1.52-1.43,2.93-3.06,2.93-5.24A4.91,4.91,0,0,0,18.35,5a4.19,4.19,0,0,0-3.18-1.42,4.14,4.14,0,0,0-3.45,1.88l-.19.28-.19-.28A4.18,4.18,0,0,0,4.71,5,4.91,4.91,0,0,0,3.51,8.3a5.92,5.92,0,0,0,1.65,3.91A35.33,35.33,0,0,0,9.17,15.92Z"/></g></g></svg>