<svg xmlns="http://www.w3.org/2000/svg" viewBox="0 0 23.27 22.04"><defs><style>.cls-1{fill:#58595b;}</style></defs><title>Asset 19</title><g id="Layer_2" data-name="Layer 2"><g id="Book-2a"><path class="cls-1" d="M2.31,12a.31.31,0,0,1-.26-.15A11.53,11.53,0,0,1,0,6.13,5.87,5.87,0,0,1,2.14,1.66,7,7,0,0,1,7.12,0l.19,0a.31.31,0,0,1,.28.34s0,0,0,0l0,3.26A.31.31,0,0,1,7.39,4l-2,.68a.29.29,0,0,0-.21.29l.06,2.91a.29.29,0,0,1-.15.25L2.83,9.43a.31.31,0,0,0-.15.25h0l0,2.05a.31.31,0,0,1-.33.29Z"/><path class="cls-1" d="M9.05,22a.31.31,0,0,1-.19-.11,54.22,54.22,0,0,1-5.75-8,.3.3,0,0,1,0-.18l.47-3.61a.3.3,0,0,1,.18-.23L6.11,8.76a.28.28,0,0,0,.18-.24l.27-2.81a.3.3,0,0,1,.24-.26L8.88,5a.31.31,0,0,0,.24-.26L9.5,1.22A.33.33,0,0,1,9.86,1L10,1a6.28,6.28,0,0,1,2.8,2.33,6.79,6.79,0,0,1,5.08-1.19,6.69,6.69,0,0,1,4.37,2.75,5.66,5.66,0,0,1,.86,4.82h0c-1.59,5.72-13.3,12-13.8,12.31A.4.4,0,0,1,9.05,22Z"/></g></g></svg>