<svg xmlns="http://www.w3.org/2000/svg" viewBox="0 0 22.44 24.81"><defs><style>.cls-1{fill:#58595b;}</style></defs><title>Asset 17</title><g id="Layer_2" data-name="Layer 2"><g id="Book-2a"><path class="cls-1" d="M6.94,3.78A1.9,1.9,0,0,0,9.17,2.26,1.91,1.91,0,1,0,6.94,3.78Z"/><path class="cls-1" d="M22.4,23.57l-1-3.78.09-3.16a3.59,3.59,0,0,0-.05-.73l-1.13-6a1.65,1.65,0,0,0-1.92-1.31l-.69.13a1.63,1.63,0,0,0-1,.69,7.87,7.87,0,0,1,.79-.11l-3,1L11,9.88a.81.81,0,0,0-.89.58L8,8.48,6.51,5.81c.12.11.59.69.7.83l.06-.27A1.65,1.65,0,0,0,6,4.45l-.69-.13A1.65,1.65,0,0,0,3.35,5.63L2.24,11.5a2.64,2.64,0,0,0,0,.93l.48,2.89L1.23,19.19a1,1,0,0,0,1.83.7l1.57-4.12a1,1,0,0,0,0-.5l-.19-1.21,1.36,1.61,0,3.85a1,1,0,0,0,1,1h0a1,1,0,0,0,1-1l0-4.22a1,1,0,0,0-.23-.64L6,12.86l.49-2.6-.21-.2c-.14-.13-.25-.2-.3-.38s-.9-2.88-.94-3.09l1.5,2.78a.65.65,0,0,0,.16.21h0l2.47,2.25a.8.8,0,0,0,1.15-.06.72.72,0,0,0,.18-.37.57.57,0,0,0,.23.08l3.6.52a1.06,1.06,0,0,0,.39,0l3.16-1.11c-.15.11-1.23.72-1.4.82l.85,4.48-1.79.75a1,1,0,0,0-.58.72l-.69,3.66a1,1,0,0,0,.78,1.15h.18a1,1,0,0,0,1-.8l.6-3.14,2.6-1.09-.05,2.48a.89.89,0,0,0,0,.28l1.09,3.92a1,1,0,0,0,.95.71l.26,0A1,1,0,0,0,22.4,23.57Z"/><path class="cls-1" d="M17.78,7.83a1.91,1.91,0,1,0-2.22-1.52A1.9,1.9,0,0,0,17.78,7.83Z"/><path class="cls-1" d="M17.81,22.77H13.05V21.21a.47.47,0,0,0-.48-.47H0v4.07H18.29V23.25A.48.48,0,0,0,17.81,22.77Z"/></g></g></svg>