<svg xmlns="http://www.w3.org/2000/svg" viewBox="0 0 24.82 25.41"><defs><style>.cls-1{fill:#58595b;}</style></defs><title>Asset 15</title><g id="Layer_2" data-name="Layer 2"><g id="Book-2a"><path class="cls-1" d="M8.69,20.45h.83v.82H8.69Z"/><path class="cls-1" d="M2.48,24.58H0v.83H24.82v-.83H22.34v-15L12.41,2.83,2.48,9.57Zm14.07-5.37L17.38,18l.83,1.25v1.24h1.65V19.21L20.69,18l.83,1.25v5.37H19.86V22.1H18.21v2.48H16.55V22.1H14.9v2.48H13.24V19.21L14.07,18l.83,1.25v1.24h1.65Zm-3.72-8.28H14.9v.83A1.25,1.25,0,0,1,13.65,13h-.82ZM13.65,8A1.25,1.25,0,0,1,14.9,9.28v.82H12.83V8ZM9.93,9.28A1.25,1.25,0,0,1,11.17,8H12V10.1H9.93Zm0,1.65H12V13h-.83a1.25,1.25,0,0,1-1.24-1.24Zm.83,5.79v7.86H6.21V16.72Z"/><path class="cls-1" d="M12.41,2,23.53,9.55l.93-1.37L12.41,0,.36,8.18l.93,1.37Z"/></g></g></svg>