<svg xmlns="http://www.w3.org/2000/svg" viewBox="0 0 20.17 20.17"><defs><style>.cls-1{fill:#58595b;}</style></defs><title>Asset 21</title><g id="Layer_2" data-name="Layer 2"><g id="Book-2a"><path class="cls-1" d="M17.85,5.28a1,1,0,0,0-.49,1.36,8,8,0,0,1-.59,7.91,1,1,0,0,0-.15.77,1,1,0,0,0,.43.64,1,1,0,0,0,.56.17,1,1,0,0,0,.85-.45,10,10,0,0,0,.74-9.91A1,1,0,0,0,17.85,5.28Z"/><path class="cls-1" d="M14.25,17a8.12,8.12,0,0,1-7.54.42,1.05,1.05,0,0,0-1.35.5,1,1,0,0,0,.49,1.35,10.11,10.11,0,0,0,9.45-.52,1,1,0,0,0,.46-.63,1,1,0,0,0-.11-.77A1,1,0,0,0,14.25,17Z"/><path class="cls-1" d="M20.17,1a1,1,0,0,0-.3-.72,1,1,0,0,0-1.44,0l-2,2A10.09,10.09,0,0,0,2.27,16.46l-2,2A1,1,0,0,0,1,20.17a1,1,0,0,0,.72-.3L19.87,1.74A1,1,0,0,0,20.17,1ZM10.09,2A8,8,0,0,1,15,3.72L3.72,15A7.93,7.93,0,0,1,2,10.08,8.06,8.06,0,0,1,10.09,2Z"/></g></g></svg>