<svg xmlns="http://www.w3.org/2000/svg" viewBox="0 0 28.57 25.11"><defs><style>.cls-1{fill:#58595b;}</style></defs><title>Asset 13</title><g id="Layer_2" data-name="Layer 2"><g id="Book-2a"><path class="cls-1" d="M21.85,7.59a1.23,1.23,0,1,1-1.23,1.23A1.23,1.23,0,0,1,21.85,7.59Z"/><path class="cls-1" d="M26.32,3.48h.16a.74.74,0,0,0,.74-.74v-2A.74.74,0,0,0,26.48,0H2.09a.74.74,0,0,0-.74.74v2a.74.74,0,0,0,.74.74h.16A14.05,14.05,0,0,0,0,11.17,14.29,14.29,0,0,0,6.72,23.28V25.1H21.85V23.28a14.29,14.29,0,0,0,6.72-12.11A14.05,14.05,0,0,0,26.32,3.48Zm-24,3.05A13.19,13.19,0,0,1,4.27,3.2a.73.73,0,0,0,.09-.79A.75.75,0,0,0,3.69,2H2.83V1.48h22.9V2h-.85a.75.75,0,0,0-.59,1.21,12.44,12.44,0,0,1,1.26,1.92,7.48,7.48,0,0,0-.89-.57A7.62,7.62,0,0,0,21,3.7a10.67,10.67,0,0,0-3.67.74,17.83,17.83,0,0,0-3.27,1.71c-.52.35-1,.68-1.46,1s-1,.59-1.48.86A12.15,12.15,0,0,1,8,9.18,6.16,6.16,0,0,1,4.72,9,5.57,5.57,0,0,1,2.13,7.21ZM14.29,24A12.83,12.83,0,0,1,1.48,11.17,13,13,0,0,1,2,7.52l.08-.23a5.3,5.3,0,0,0,2.35,2.4,6.6,6.6,0,0,0,3.72.58,15.09,15.09,0,0,0,6.69-2.95,17.77,17.77,0,0,1,3-1.64,10.93,10.93,0,0,1,3.23-.88A7.59,7.59,0,0,1,26,6c.11.25.22.5.32.75l.31.94a13,13,0,0,1,.5,3.53A12.82,12.82,0,0,1,14.29,24Z"/><path class="cls-1" d="M14.53,14.75a3.36,3.36,0,0,1-.59-.11l-.16,0c-.87-.84-2.58-1.27-2.09-.48.11.19.24.41.36.66-.35.08-.58.16-.58.16a7.38,7.38,0,0,0-2.42,1.63l-1.57-.91v3.69l1.44-1.17A7.66,7.66,0,0,0,11.66,20c-.16.26-.32.51-.45.7-.58.78,1.32.44,2.22-.39A7,7,0,0,0,14.7,20a12,12,0,0,0,3-2.54.66.66,0,0,1,0-.15A5.91,5.91,0,0,0,14.53,14.75Zm1.16,2.64a.57.57,0,0,1-.58-.56.58.58,0,0,1,.58-.57.57.57,0,1,1,0,1.13Z"/><path class="cls-1" d="M19.06,12.15a1.56,1.56,0,1,1-1.56,1.56A1.56,1.56,0,0,1,19.06,12.15Z"/></g></g></svg>