<svg xmlns="http://www.w3.org/2000/svg" viewBox="0 0 23.14 24.73"><defs><style>.cls-1{fill:#58595b;}</style></defs><title>Asset 20</title><g id="Layer_2" data-name="Layer 2"><g id="Book-2a"><g id="surface1"><path class="cls-1" d="M6,24.73C2.17,15.67,10.3,12.36,10.3,12.36c-.57,4.83,3.27,8.6,3.27,8.6a24,24,0,0,0,4.11-1.73,23.62,23.62,0,0,1-1.42,5.49s5-2.75,6.55-7.32-3-9.17-3-9.17c.28,3.24-1.25,6.42-4.26,8.85a1.63,1.63,0,0,0,.38-.41c.54-.77,1.4-2.77.9-7.41-.72-6.51-9-9.26-9-9.26.71,4-1.43,4.88-6.42,12.41S6,24.73,6,24.73Z"/></g></g></g></svg>