<svg xmlns="http://www.w3.org/2000/svg" viewBox="0 0 28.09 16.39"><defs><style>.cls-1{fill:#58595b;}</style></defs><title>Asset 11</title><g id="Layer_2" data-name="Layer 2"><g id="Book-2a"><path class="cls-1" d="M6.79,1.29C5.85.35,1.87.12.59,0A.44.44,0,0,0,.23.12.9.9,0,0,0,0,.59V11.12a.56.56,0,0,0,.59.59H4.1a.64.64,0,0,0,.58-.36C4.68,11,6.79,4.8,7,1.76A.47.47,0,0,0,6.79,1.29Z"/><path class="cls-1" d="M19.31,4.1c-1.17-.35-2.22-.82-3.16-1.17-2.1-.94-3-.47-4.91,1.4A3.82,3.82,0,0,0,10,6.79c0,.12,0,.12.23.23.59.24,1.41.36,2.23-.93a.59.59,0,0,1,.47-.24,2.07,2.07,0,0,0,.81-.23,5,5,0,0,1,.82-.35h.24c.12,0,.35.11.47.11.58.59,1.64,1.41,2.69,2.35A26.61,26.61,0,0,1,22,11.47h.11C21.3,9.13,19.9,5.15,19.31,4.1Z"/><path class="cls-1" d="M27.51,1.17a20.55,20.55,0,0,0-7.26,1.17c-.12.12-.23.24-.35.35a.7.7,0,0,0,.12.47,66,66,0,0,1,3.39,9.25.79.79,0,0,0,.59.47h3.51a.55.55,0,0,0,.58-.59V1.76A.55.55,0,0,0,27.51,1.17Z"/><path class="cls-1" d="M21.19,12.64c-.47-1.05-2.46-2.57-4.22-4C16,7.84,15.1,7.14,14.4,6.55c-.12.12-.35.12-.35.24a2.17,2.17,0,0,1-.94.23,2.9,2.9,0,0,1-3.4,1.17,1.37,1.37,0,0,1-1.05-1C8.43,6,9.48,4.33,10.3,3.51H8a61.4,61.4,0,0,1-1.87,7,12.76,12.76,0,0,0,1.28,1.28c2.23,1.88,4.8,3.75,5.27,4.1a3.41,3.41,0,0,0,1.41.47h.35l-1.88-1.88a.58.58,0,0,1,.82-.81L15.68,16c.24.23.47.11.71.11s.47-.35.58-.7l-2.69-2.69a.58.58,0,0,1,.82-.82L18,14.87a1.31,1.31,0,0,0,.93,0c.12-.12.35-.24.47-.47l-3.28-3.28A.58.58,0,0,1,17,10.3l3.4,3.4a.78.78,0,0,0,.7-.12A.8.8,0,0,0,21.19,12.64Z"/></g></g></svg>