<svg xmlns="http://www.w3.org/2000/svg" viewBox="0 0 22.08 22.08"><defs><style>.cls-1{fill:#58595b;}</style></defs><title>Asset 3</title><g id="Layer_2" data-name="Layer 2"><g id="Book-2a"><path class="cls-1" d="M9.48,5.86l2.3,2.3A5.18,5.18,0,0,0,8.45,13s0,0,0,.07a3.24,3.24,0,0,0-2.53,2.52H21.37a3.3,3.3,0,0,0-2.57-2.52V13a5.17,5.17,0,0,0-3.32-4.82l2.29-2.3L15.83,3.92H11.42Zm8,7.12H9.75a3.88,3.88,0,1,1,7.76,0Z"/><path class="cls-1" d="M5.22,18.84a3.24,3.24,0,0,0,3.23,3.24H18.8a3.28,3.28,0,0,0,3.28-3.24v-2H5.22Z"/><path class="cls-1" d="M3.92,16.86V0H2.59A2.59,2.59,0,0,0,0,2.59V14.27a2.59,2.59,0,0,0,2.59,2.59Z"/><path class="cls-1" d="M13,0h1.29V2.63H13Z"/><path class="cls-1" d="M15.75,2.17,17.69.23l.92.92L16.67,3.09Z"/><path class="cls-1" d="M8.64,1.15,9.55.23,11.5,2.17l-.92.92Z"/></g></g></svg>